<?xml version="1.0" encoding="UTF-8" standalone="no"?>
<svg
   style="fill-rule:evenodd;clip-rule:evenodd;stroke-linejoin:round;stroke-miterlimit:2"
   width="100%"
   height="100%"
   viewBox="0 0 16 16"
   xml:space="preserve"
   version="1.1"
   id="svg7"
   sodipodi:docname="kdenlive-custom-effect.svg"
   inkscape:version="1.2.2 (b0a8486541, 2022-12-01)"
   xmlns:inkscape="http://www.inkscape.org/namespaces/inkscape"
   xmlns:sodipodi="http://sodipodi.sourceforge.net/DTD/sodipodi-0.dtd"
   xmlns="http://www.w3.org/2000/svg"
   xmlns:svg="http://www.w3.org/2000/svg"><sodipodi:namedview
   id="namedview9"
   pagecolor="#ffffff"
   bordercolor="#000000"
   borderopacity="0.25"
   inkscape:showpageshadow="2"
   inkscape:pageopacity="0.0"
   inkscape:pagecheckerboard="0"
   inkscape:deskcolor="#d1d1d1"
   showgrid="false"
   inkscape:zoom="53.875"
   inkscape:cx="8"
   inkscape:cy="10.969838"
   inkscape:window-width="1920"
   inkscape:window-height="1025"
   inkscape:window-x="0"
   inkscape:window-y="0"
   inkscape:window-maximized="1"
   inkscape:current-layer="svg7" />
 <defs
   id="defs3">
  <style
   id="current-color-scheme"
   type="text/css">
   .ColorScheme-Text { color:#dfdfdf; } .ColorScheme-Highlight { color:#4285f4; } .ColorScheme-NeutralText { color:#ff9800; } .ColorScheme-PositiveText { color:#4caf50; } .ColorScheme-NegativeText { color:#f44336; }
  </style>
 </defs>
 <path
   style="fill:#ff8080"
   class="ColorScheme-Text"
   d="M15.26,3.082c0,-1.293 -1.049,-2.342 -2.342,-2.342l-9.836,0c-1.293,0 -2.342,1.049 -2.342,2.342l0,9.836c0,1.293 1.049,2.342 2.342,2.342l9.836,0c1.293,0 2.342,-1.049 2.342,-2.342l0,-9.836Zm-0.895,0.08c0,-0.843 -0.684,-1.527 -1.527,-1.527l-9.676,0c-0.843,0 -1.527,0.684 -1.527,1.527l0,9.676c0,0.843 0.684,1.527 1.527,1.527l9.676,0c0.843,0 1.527,-0.684 1.527,-1.527l-0,-9.676Zm-5.712,-0.13l0.2,1.214c0.329,0.074 0.647,0.19 0.946,0.344l0.933,-0.802c0.368,0.236 0.705,0.518 1.001,0.84l-0.628,1.059c0.205,0.267 0.374,0.561 0.504,0.872l1.23,-0.015c0.131,0.418 0.207,0.85 0.227,1.287l-1.161,0.407c-0.016,0.337 -0.074,0.67 -0.175,0.992l0.952,0.78c-0.168,0.403 -0.388,0.784 -0.653,1.131l-1.152,-0.434c-0.228,0.248 -0.487,0.466 -0.771,0.647l0.228,1.209c-0.389,0.201 -0.801,0.352 -1.228,0.447l-0.603,-1.073c-0.334,0.043 -0.672,0.043 -1.006,0l-0.603,1.073c-0.427,-0.095 -0.839,-0.246 -1.228,-0.447l0.228,-1.209c-0.284,-0.181 -0.543,-0.399 -0.771,-0.647l-1.152,0.434c-0.265,-0.347 -0.485,-0.728 -0.653,-1.131l0.952,-0.78c-0.101,-0.322 -0.159,-0.655 -0.175,-0.992l-1.161,-0.407c0.02,-0.437 0.096,-0.869 0.227,-1.287l1.23,0.015c0.13,-0.311 0.299,-0.605 0.504,-0.872l-0.628,-1.059c0.296,-0.322 0.633,-0.604 1.001,-0.84l0.933,0.802c0.299,-0.154 0.617,-0.27 0.946,-0.344l0.2,-1.214c0.433,-0.056 0.873,-0.056 1.306,0Zm-0.653,2.184c1.57,0 2.845,1.275 2.845,2.845c-0,1.57 -1.275,2.845 -2.845,2.845c-1.57,-0 -2.845,-1.275 -2.845,-2.845c0,-1.57 1.275,-2.845 2.845,-2.845Z"
   id="path5" />
</svg>
