<?xml version="1.0" encoding="UTF-8" standalone="no"?>
<svg
   style="fill-rule:evenodd;clip-rule:evenodd;stroke-linejoin:round;stroke-miterlimit:2"
   width="100%"
   height="100%"
   viewBox="0 0 16 16"
   xml:space="preserve"
   version="1.1"
   id="svg11"
   sodipodi:docname="Group.svg"
   inkscape:version="1.2.2 (b0a8486541, 2022-12-01)"
   xmlns:inkscape="http://www.inkscape.org/namespaces/inkscape"
   xmlns:sodipodi="http://sodipodi.sourceforge.net/DTD/sodipodi-0.dtd"
   xmlns="http://www.w3.org/2000/svg"
   xmlns:svg="http://www.w3.org/2000/svg"><sodipodi:namedview
   id="namedview11"
   pagecolor="#ffffff"
   bordercolor="#000000"
   borderopacity="0.25"
   inkscape:showpageshadow="2"
   inkscape:pageopacity="0.0"
   inkscape:pagecheckerboard="0"
   inkscape:deskcolor="#d1d1d1"
   showgrid="false"
   inkscape:zoom="53.875"
   inkscape:cx="6.8213457"
   inkscape:cy="6.5243619"
   inkscape:window-width="1920"
   inkscape:window-height="1008"
   inkscape:window-x="0"
   inkscape:window-y="0"
   inkscape:window-maximized="1"
   inkscape:current-layer="svg11" />
 <defs
   id="defs3">
  <style
   id="current-color-scheme"
   type="text/css">
   .ColorScheme-Text { color:#dfdfdf; } .ColorScheme-Highlight { color:#4285f4; } .ColorScheme-NeutralText { color:#ff9800; } .ColorScheme-PositiveText { color:#4caf50; } .ColorScheme-NegativeText { color:#f44336; }
  </style>
 </defs>
 <path
   style="fill:currentColor;stroke-width:1.13502"
   class="ColorScheme-Text"
   d="m 6.3605778,2.3283154 c 1.5555808,0 3.0147365,1.3828068 2.8102689,3.0639095 C 8.966379,7.0777632 7.9161586,8.4572432 6.3605778,8.4572432 4.8061588,8.4572432 3.8117023,7.139862 3.5514707,5.3922249 3.3005331,3.7177756 4.8061588,2.3283154 6.3605778,2.3283154 Z"
   id="path5" />
 <path
   style="fill:currentColor;fill-opacity:0.5;stroke-width:1.08356"
   class="ColorScheme-Text"
   d="m 6.3479833,10.908251 c 0,0 0.764768,-1.7896607 0.9083571,-2.2026592 1.4660654,0.083502 2.5856442,0.4186406 3.4034776,0.7977867 0.938532,0.4355667 1.471268,2.5174855 1.730353,3.9313845 0.08116,0.306928 0.02497,0.637553 -0.151913,0.892574 -0.176885,0.255021 -0.454699,0.405099 -0.749161,0.405099 -2.3359239,0.04401 -7.77254,0.04401 -10.189623,0.04401 -0.3173528,0 -0.61597644,-0.167005 -0.79910456,-0.449107 C 0.31724132,14.045234 0.27145929,13.685271 0.37863086,13.360288 0.75217061,11.996039 1.3775115,10.035989 2.2400866,9.5473866 2.9996521,9.1163335 4.0276667,8.8353591 5.3626291,8.7304168 Z"
   id="path7" />
 <path
   style="fill:#000000;fill-opacity:0.711687;stroke-width:1.13327"
   class="ColorScheme-Text"
   d="m 11.362315,8.919657 c 0.262131,-0.5516445 0.622412,-1.3179409 0.720568,-1.5681828 1.627051,0.082301 2.869566,0.4126212 3.777207,0.7863159 1.041589,0.4293039 1.632825,2.4812859 1.92036,3.8748559 0.09005,0.302515 0.0277,0.628384 -0.168596,0.879742 -0.196306,0.251352 -0.504627,0.399272 -0.831426,0.399272 -0.623565,0.01 -1.445752,0.0178 -2.371866,0.02448 -0.184763,-0.849722 -0.474607,-1.886281 -0.88916,-2.689277 C 13.166044,9.9450926 12.707606,9.4301501 12.186812,9.2154983 11.936229,9.1131771 11.662553,9.0130807 11.362315,8.919657 Z m -0.6917,-0.1901838 C 9.9673697,8.5593087 9.1509572,8.4325195 8.2121406,8.3846954 H 8.191355 C 8.7294713,8.196736 9.1983024,7.857519 9.5747527,7.409308 9.7075492,7.3970737 9.8426562,7.3859519 9.9812264,7.3759424 Z M 8.6705788,1.6370604 C 9.180981,0.80848133 10.134809,0.2568368 11.107112,0.2568368 c 1.546221,0 2.990479,1.3480806 2.787243,3.0341551 -0.203238,1.6905235 -1.241022,3.1128995 -2.787243,3.1128995 -0.306007,0 -0.591235,-0.052273 -0.852208,-0.1490331 C 10.410796,5.8611444 10.519343,5.4329526 10.573616,4.9825171 10.750295,3.50887 9.8761443,2.2276313 8.6705788,1.6370604 Z"
   id="path9"
   sodipodi:nodetypes="cccccccccccccccccscsccc" />
<path
   style="fill:#333333;stroke-width:0.0209057"
   d="M 0.81927011,14.907024 C 0.39388397,14.757456 0.1211253,14.341677 0.12076378,13.842257 0.12063103,13.658805 0.13050057,13.610325 0.26134169,13.151693 0.53606216,12.188734 0.73800187,11.608426 1.0127781,10.992313 1.3186275,10.306529 1.6549196,9.8063842 1.9672759,9.5727507 2.3010626,9.3230888 3.0421725,9.0273186 3.739847,8.8653332 4.1718955,8.7650209 5.0183808,8.6364467 5.250859,8.6358229 l 0.07156,-1.92e-4 0.2805782,0.6302758 C 5.7573158,9.6125591 5.9850211,10.122519 6.1090095,10.39915 l 0.2254336,0.50297 0.087906,-0.207014 C 6.6070957,10.260045 6.943432,9.4405581 7.1046058,9.0327799 l 0.1679609,-0.42495 0.2372347,0.013892 c 1.0823918,0.063382 2.4642514,0.4094543 3.2914186,0.8243 0.71182,0.3569941 1.302701,1.6874101 1.734116,3.9044991 0.09904,0.50896 0.09262,0.697657 -0.03328,0.978933 -0.111445,0.248972 -0.325992,0.448729 -0.574452,0.534851 -0.122877,0.04259 -0.20077,0.04589 -1.50516,0.06387 -0.7565672,0.01042 -3.2012073,0.01892 -5.4325332,0.01889 -3.8709041,-6.6e-5 -4.06216939,-0.0019 -4.17063659,-0.04003 z"
   id="path257" /><path
   style="fill:#552200;stroke-width:0.0212423"
   d="M 5.8572896,8.2650219 C 4.7993402,8.0403348 4.0246594,7.1823124 3.6688417,5.8411367 3.4322462,4.9493425 3.4697765,4.3184517 3.7965079,3.6950404 3.9523484,3.397693 4.0934636,3.2114181 4.3510368,2.9630511 5.2290879,2.1163836 6.4345614,1.8927427 7.4957514,2.37964 c 0.8655995,0.3971561 1.4511293,1.1113561 1.6483161,2.0105336 0.051996,0.2371019 0.051941,0.7609975 -1.083e-4,1.0514636 -0.2657528,1.4830144 -1.069948,2.5065199 -2.2022574,2.8028291 -0.242649,0.063498 -0.8298095,0.074628 -1.084411,0.020556 z"
   id="path313" /><path
   style="fill:#808080;stroke-width:0.0217222"
   d="M 5.822273,8.2876946 C 4.8076729,8.0727888 4.0222074,7.2388135 3.6496452,5.9808846 3.3841529,5.0844732 3.3851466,4.413228 3.6528535,3.8125512 3.857042,3.3543951 4.1441139,2.9899874 4.543917,2.681439 5.571237,1.8886042 6.8330045,1.8327216 7.9206332,2.5318877 c 0.6232025,0.4006157 1.0578588,1.0006502 1.2476627,1.72237 0.042081,0.1600015 0.04879,0.2436727 0.049005,0.610573 2.225e-4,0.3584816 -0.00765,0.46292 -0.050308,0.6658996 C 8.9803813,6.4192342 8.6192141,7.1253531 8.0986309,7.6194863 7.7369052,7.9628324 7.2605003,8.2146638 6.8321973,8.2889333 6.6173947,8.3261814 6.0003974,8.3254244 5.8222717,8.2876965 Z"
   id="path729" /></svg>
