<?xml version="1.0" encoding="UTF-8" standalone="no"?>
<svg
   width="32"
   height="32"
   version="1"
   id="svg14"
   sodipodi:docname="1.svg"
   inkscape:version="1.2.2 (b0a8486541, 2022-12-01)"
   xmlns:inkscape="http://www.inkscape.org/namespaces/inkscape"
   xmlns:sodipodi="http://sodipodi.sourceforge.net/DTD/sodipodi-0.dtd"
   xmlns="http://www.w3.org/2000/svg"
   xmlns:svg="http://www.w3.org/2000/svg">
  <defs
     id="defs18" />
  <sodipodi:namedview
     id="namedview16"
     pagecolor="#ffffff"
     bordercolor="#000000"
     borderopacity="0.25"
     inkscape:showpageshadow="2"
     inkscape:pageopacity="0.0"
     inkscape:pagecheckerboard="0"
     inkscape:deskcolor="#d1d1d1"
     showgrid="false"
     inkscape:zoom="26.9375"
     inkscape:cx="16.185615"
     inkscape:cy="16.092807"
     inkscape:window-width="1920"
     inkscape:window-height="1008"
     inkscape:window-x="0"
     inkscape:window-y="0"
     inkscape:window-maximized="1"
     inkscape:current-layer="svg14" />
  <rect
     style="opacity:0.2;stroke-width:1.10138"
     width="29.478395"
     height="20.740057"
     x="1.19125"
     y="11"
     rx="1.4739197"
     ry="1.6131155"
     id="rect2" />
  <path
     style="fill:#973552"
     d="M 2,22.6 C 2,23.376 2.6244,24 3.4,24 H 28.6 C 29.376,24 30,23.376 30,22.6 V 7.4 C 30,6.6244 29.376,6 28.6,6 H 16 C 13.9,6 13.2,3 11.1,3 H 3.4 C 2.6244,3 2,3.6244 2,4.4"
     id="path4" />
  <rect
     style="opacity:0.2;stroke-width:0.982487"
     width="28"
     height="17.375036"
     x="2"
     y="9.6249638"
     rx="1.4"
     ry="1.3513917"
     id="rect6" />
  <rect
     style="fill:#ff7446"
     width="24"
     height="11"
     x="4"
     y="8"
     rx="1.4"
     ry="1.4"
     id="rect8" />
  <rect
     style="fill:#676767;stroke-width:1.07484"
     width="29.456213"
     height="19.766941"
     x="1.2292486"
     y="11.630787"
     rx="1.4728106"
     ry="1.5374289"
     id="rect10" />
  <path
     style="opacity:0.1;fill:#ffffff"
     d="M 3.4004,3 C 2.6248,3 2,3.6248 2,4.4004 V 5.4004 C 2,4.6248 2.6248,4 3.4004,4 H 11.1 C 13.2,4 13.9,7 16,7 H 28.6 C 29.375,7 30,7.6248 30,8.4004 V 7.4004 C 30,6.6248 29.375,6 28.6,6 H 16 C 13.9,6 13.2,3 11.1,3 Z"
     id="path12" />
  <path
     fill="#ffffff"
     d="m 16.4638,15.357986 c -2.767028,0 -5.05315,2.23486 -5.05315,4.967159 0,1.038498 0.355571,1.993908 0.913572,2.794072 l -3.3687984,3.330254 a 0.9185968,0.90808695 0 0 0 1.2847574,1.298234 l 3.368797,-3.330253 c 0.810604,0.551724 1.802479,0.874897 2.854913,0.874897 2.767119,0 5.024647,-2.234861 5.024647,-4.967159 0,-2.732299 -2.257528,-4.967159 -5.024647,-4.967159 z m 0,1.806239 c 1.77909,0 3.197502,1.404171 3.197502,3.16092 0,1.756658 -1.418412,3.160919 -3.197502,3.160919 -1.77909,0 -3.197502,-1.404261 -3.197502,-3.160919 0,-1.756749 1.418412,-3.16092 3.197502,-3.16092 z"
     id="path10"
     style="fill:#e6e6e6;stroke-width:0.908331" />
</svg>
