<?xml version="1.0" encoding="UTF-8" standalone="no"?>
<svg
   style="clip-rule:evenodd;fill-rule:evenodd;stroke-linejoin:round;stroke-miterlimit:2"
   viewBox="0 0 64 64"
   version="1.1"
   id="svg1358"
   xmlns="http://www.w3.org/2000/svg"
   xmlns:svg="http://www.w3.org/2000/svg">
  <path
     d="m62.082 9.986c0-4.453-3.615-8.068-8.068-8.068h-44.028c-4.453 0-8.068 3.615-8.068 8.068v44.028c0 4.453 3.615 8.068 8.068 8.068h44.028c4.453 0 8.068-3.615 8.068-8.068v-44.028z"
     style="fill:url(#_Linear1)"
     id="path1325" />
  <path
     d="m52.326 42.826c1.1 0 1.993 0.893 1.993 1.993v10.362c0 1.1-0.893 1.993-1.993 1.993h-40.652c-1.1 0-1.993-0.893-1.993-1.993v-10.362c0-1.1 0.893-1.993 1.993-1.993h40.652z"
     style="fill:#e4e4e4"
     id="path1327" />
  <circle
     cx="38.775"
     cy="47.21"
     r="1.993"
     style="fill:#d40000"
     id="circle1329" />
  <circle
     cx="44.355"
     cy="47.21"
     r="1.993"
     style="fill:#d40000"
     id="circle1331" />
  <circle
     cx="49.935"
     cy="47.21"
     r="1.993"
     style="fill:#d40000"
     id="circle1333" />
  <path
     d="m52.326 25.47c1.1 0 1.993 0.893 1.993 1.993v10.362c0 1.1-0.893 1.993-1.993 1.993h-40.652c-1.1 0-1.993-0.893-1.993-1.993v-10.362c0-1.1 0.893-1.993 1.993-1.993h40.652z"
     style="fill:#e4e4e4"
     id="path1335" />
  <circle
     cx="38.775"
     cy="29.854"
     r="1.993"
     style="fill:#ff9955"
     id="circle1337" />
  <circle
     cx="44.355"
     cy="29.854"
     r="1.993"
     style="fill:#ff9955"
     id="circle1339" />
  <circle
     cx="49.935"
     cy="29.854"
     r="1.993"
     style="fill:#ff9955"
     id="circle1341" />
  <path
     d="m52.326 8.114c1.1 0 1.993 0.893 1.993 1.993v10.362c0 1.1-0.893 1.993-1.993 1.993h-40.652c-1.1 0-1.993-0.893-1.993-1.993v-10.362c0-1.1 0.893-1.993 1.993-1.993h40.652z"
     style="fill:#e4e4e4"
     id="path1343" />
  <circle
     cx="38.775"
     cy="12.498"
     r="1.993"
     style="fill:#008000"
     id="circle1345" />
  <circle
     cx="44.355"
     cy="12.498"
     r="1.993"
     style="fill:#008000"
     id="circle1347" />
  <circle
     cx="49.935"
     cy="12.498"
     r="1.993"
     style="fill:#008000"
     id="circle1349" />
  <defs
     id="defs1356">
    <linearGradient
       id="_Linear1"
       x2="1"
       gradientTransform="matrix(3.68402e-15,-60.1646,60.1646,3.68402e-15,32,62.0823)"
       gradientUnits="userSpaceOnUse">
      <stop
         style="stop-color:#222"
         offset="0"
         id="stop1351" />
      <stop
         style="stop-color:#737373"
         offset="1"
         id="stop1353" />
    </linearGradient>
  </defs>
</svg>
