<?xml version="1.0" encoding="UTF-8" standalone="no"?>
<svg
   style="fill-rule:evenodd;clip-rule:evenodd;stroke-linejoin:round;stroke-miterlimit:2"
   width="100%"
   height="100%"
   viewBox="0 0 16 16"
   xml:space="preserve"
   version="1.1"
   id="svg11"
   sodipodi:docname="Group.svg"
   inkscape:version="1.2.2 (b0a8486541, 2022-12-01)"
   xmlns:inkscape="http://www.inkscape.org/namespaces/inkscape"
   xmlns:sodipodi="http://sodipodi.sourceforge.net/DTD/sodipodi-0.dtd"
   xmlns="http://www.w3.org/2000/svg"
   xmlns:svg="http://www.w3.org/2000/svg"><sodipodi:namedview
   id="namedview11"
   pagecolor="#ffffff"
   bordercolor="#000000"
   borderopacity="0.25"
   inkscape:showpageshadow="2"
   inkscape:pageopacity="0.0"
   inkscape:pagecheckerboard="0"
   inkscape:deskcolor="#d1d1d1"
   showgrid="false"
   inkscape:zoom="53.875"
   inkscape:cx="6.6635731"
   inkscape:cy="6.5150812"
   inkscape:window-width="1920"
   inkscape:window-height="1025"
   inkscape:window-x="0"
   inkscape:window-y="0"
   inkscape:window-maximized="1"
   inkscape:current-layer="svg11" />
 <defs
   id="defs3">
  <style
   id="current-color-scheme"
   type="text/css">
   .ColorScheme-Text { color:#dfdfdf; } .ColorScheme-Highlight { color:#4285f4; } .ColorScheme-NeutralText { color:#ff9800; } .ColorScheme-PositiveText { color:#4caf50; } .ColorScheme-NegativeText { color:#f44336; }
  </style>
 </defs>
 <path
   style="fill:currentColor;stroke-width:1.13502"
   class="ColorScheme-Text"
   d="m 6.3605778,2.3283154 c 1.5555808,0 3.0147365,1.3828068 2.8102689,3.0639095 C 8.966379,7.0777632 7.9161586,8.4572432 6.3605778,8.4572432 4.8061588,8.4572432 3.8117023,7.139862 3.5514707,5.3922249 3.3005331,3.7177756 4.8061588,2.3283154 6.3605778,2.3283154 Z"
   id="path5" />
 <path
   style="fill:currentColor;fill-opacity:0.5;stroke-width:1.08356"
   class="ColorScheme-Text"
   d="m 6.3479833,10.908251 c 0,0 0.764768,-1.7896607 0.9083571,-2.2026592 1.4660654,0.083502 2.5856442,0.4186406 3.4034776,0.7977867 0.938532,0.4355667 1.471268,2.5174855 1.730353,3.9313845 0.08116,0.306928 0.02497,0.637553 -0.151913,0.892574 -0.176885,0.255021 -0.454699,0.405099 -0.749161,0.405099 -2.3359239,0.04401 -7.77254,0.04401 -10.189623,0.04401 -0.3173528,0 -0.61597644,-0.167005 -0.79910456,-0.449107 C 0.31724132,14.045234 0.27145929,13.685271 0.37863086,13.360288 0.75217061,11.996039 1.3775115,10.035989 2.2400866,9.5473866 2.9996521,9.1163335 4.0276667,8.8353591 5.3626291,8.7304168 Z"
   id="path7" />
 <path
   style="fill:#6c5353;fill-opacity:0.711687;stroke-width:0.983935"
   class="ColorScheme-Text"
   d="m 10.599439,8.8545423 c 0.219867,-0.4957767 0.522064,-1.1844664 0.604393,-1.409365 1.364729,0.073966 2.40692,0.3708329 3.168223,0.7066816 0.873659,0.3858262 1.369572,2.2299951 1.610748,3.4824311 0.07554,0.271877 0.02324,0.564745 -0.141413,0.790644 -0.164658,0.225898 -0.423269,0.358838 -0.697377,0.358838 -0.523032,0.009 -1.212661,0.01599 -1.989461,0.02199 C 12.999578,12.042104 12.756465,11.110524 12.408746,10.388849 12.112359,9.7761267 11.727834,9.3133352 11.291004,9.1204221 11.080823,9.0284635 10.851269,8.9385045 10.599439,8.8545423 Z m -0.58018,-0.170923 C 9.4293942,8.5306882 8.7446086,8.4167396 7.9571535,8.3737589 H 7.939719 C 8.3910771,8.2048351 8.7843204,7.8999724 9.1000772,7.4971538 9.2114638,7.4861587 9.3247876,7.4761632 9.4410173,7.4671673 Z M 8.3416795,2.3094909 C 8.7697916,1.5648263 9.5698382,1.0690496 10.385382,1.0690496 c 1.296928,0 2.508335,1.2115536 2.337865,2.7268709 -0.170471,1.5193156 -1.040937,2.7976404 -2.337865,2.7976404 -0.256673,0 -0.4959126,-0.046979 -0.7148115,-0.1339397 C 9.8013288,6.1057806 9.8923751,5.720954 9.9378984,5.3161364 10.086091,3.9917329 9.3528765,2.8402517 8.3416795,2.3094909 Z"
   id="path9"
   sodipodi:nodetypes="cccccccccccccccccscsccc" />
<path
   style="fill:#2b1100;stroke-width:0.0209057"
   d="M 0.81927011,14.907024 C 0.39388397,14.757456 0.1211253,14.341677 0.12076378,13.842257 0.12063103,13.658805 0.13050057,13.610325 0.26134169,13.151693 0.53606216,12.188734 0.73800187,11.608426 1.0127781,10.992313 1.3186275,10.306529 1.6549196,9.8063842 1.9672759,9.5727507 2.3010626,9.3230888 3.0421725,9.0273186 3.739847,8.8653332 4.1718955,8.7650209 5.0183808,8.6364467 5.250859,8.6358229 l 0.07156,-1.92e-4 0.2805782,0.6302758 C 5.7573158,9.6125591 5.9850211,10.122519 6.1090095,10.39915 l 0.2254336,0.50297 0.087906,-0.207014 C 6.6070957,10.260045 6.943432,9.4405581 7.1046058,9.0327799 l 0.1679609,-0.42495 0.2372347,0.013892 c 1.0823918,0.063382 2.4642514,0.4094543 3.2914186,0.8243 0.71182,0.3569941 1.302701,1.6874101 1.734116,3.9044991 0.09904,0.50896 0.09262,0.697657 -0.03328,0.978933 -0.111445,0.248972 -0.325992,0.448729 -0.574452,0.534851 -0.122877,0.04259 -0.20077,0.04589 -1.50516,0.06387 -0.7565672,0.01042 -3.2012073,0.01892 -5.4325332,0.01889 -3.8709041,-6.6e-5 -4.06216939,-0.0019 -4.17063659,-0.04003 z"
   id="path257" /><path
   style="fill:#552200;stroke-width:0.0212423"
   d="M 5.8968732,8.4427608 C 4.8389238,8.2180737 4.064243,7.3600513 3.7084253,6.0188756 3.4718298,5.1270814 3.5093601,4.4961906 3.8360915,3.8727793 3.991932,3.5754319 4.1330472,3.389157 4.3906204,3.14079 5.2686715,2.2941225 6.474145,2.0704816 7.535335,2.5573789 8.4009345,2.954535 8.9864643,3.668735 9.1836511,4.5679125 9.2356469,4.8050144 9.2355922,5.32891 9.1835428,5.6193761 8.91779,7.1023905 8.1135948,8.125896 6.9812854,8.4222052 c -0.242649,0.063498 -0.8298095,0.074628 -1.084411,0.020556 z"
   id="path313" /><path
   style="fill:#ff7f2a;stroke-width:0.0217222"
   d="M 5.8252922,8.5298838 C 4.8106921,8.314978 4.0252266,7.4810027 3.6526644,6.2230738 3.3871721,5.3266624 3.3881658,4.6554172 3.6558727,4.0547404 3.8600612,3.5965843 4.1471331,3.2321766 4.5469362,2.9236282 5.5742562,2.1307934 6.8360237,2.0749108 7.9236524,2.7740769 c 0.6232025,0.4006157 1.0578588,1.0006502 1.2476627,1.72237 0.042081,0.1600015 0.04879,0.2436727 0.049005,0.610573 2.225e-4,0.3584816 -0.00765,0.46292 -0.050308,0.6658996 C 8.9834005,6.6614234 8.6222333,7.3675423 8.1016501,7.8616755 7.7399244,8.2050216 7.2635195,8.456853 6.8352165,8.5311225 6.6204139,8.5683706 6.0034166,8.5676136 5.8252909,8.5298857 Z"
   id="path729" /></svg>
