<?xml version="1.0" encoding="UTF-8" standalone="no"?>
<svg
   style="fill-rule:evenodd;clip-rule:evenodd;stroke-linejoin:round;stroke-miterlimit:2"
   width="100%"
   height="100%"
   viewBox="0 0 16 16"
   xml:space="preserve"
   version="1.1"
   id="svg7"
   sodipodi:docname="query-item.svg"
   inkscape:version="1.2.2 (b0a8486541, 2022-12-01)"
   xmlns:inkscape="http://www.inkscape.org/namespaces/inkscape"
   xmlns:sodipodi="http://sodipodi.sourceforge.net/DTD/sodipodi-0.dtd"
   xmlns="http://www.w3.org/2000/svg"
   xmlns:svg="http://www.w3.org/2000/svg"><sodipodi:namedview
   id="namedview9"
   pagecolor="#ffffff"
   bordercolor="#000000"
   borderopacity="0.25"
   inkscape:showpageshadow="2"
   inkscape:pageopacity="0.0"
   inkscape:pagecheckerboard="0"
   inkscape:deskcolor="#d1d1d1"
   showgrid="false"
   inkscape:zoom="53.875"
   inkscape:cx="8"
   inkscape:cy="8"
   inkscape:window-width="1920"
   inkscape:window-height="1025"
   inkscape:window-x="0"
   inkscape:window-y="0"
   inkscape:window-maximized="1"
   inkscape:current-layer="svg7" />
 <defs
   id="defs3">
  <style
   id="current-color-scheme"
   type="text/css">
   .ColorScheme-Text { color:#dfdfdf; } .ColorScheme-Highlight { color:#4285f4; } .ColorScheme-NeutralText { color:#ff9800; } .ColorScheme-PositiveText { color:#4caf50; } .ColorScheme-NegativeText { color:#f44336; }
  </style>
 </defs>
 <path
   style="fill:#241c1c"
   class="ColorScheme-Text"
   d="M3.771,8l-1.932,-4.262c-0.085,-0.185 -0.048,-0.403 0.092,-0.551c0.14,-0.147 0.356,-0.195 0.545,-0.121l11.412,4.468c0.192,0.075 0.318,0.26 0.318,0.466c0,0.206 -0.126,0.391 -0.318,0.466l-11.412,4.468c-0.189,0.074 -0.405,0.026 -0.545,-0.121c-0.14,-0.148 -0.177,-0.366 -0.092,-0.551l1.932,-4.262Zm-0.513,-3.554l1.518,3.347c0.059,0.132 0.059,0.282 -0,0.414l-1.518,3.347l9.077,-3.554l-9.077,-3.554Z"
   id="path5" />
<path
   style="fill:#ffccaa;fill-opacity:0.816581;stroke-width:0.0185615"
   d="m 3.3317865,11.450057 c 0,-0.02173 0.3353351,-0.778657 0.7451891,-1.6820687 L 4.8221646,8.1254209 V 7.9999235 7.8744264 L 4.0769756,6.2317815 C 3.6671216,5.3283268 3.3317865,4.57143 3.3317865,4.5497887 c 0,-0.026282 0.01171,-0.039348 0.035263,-0.039348 0.026671,0 8.4178015,3.2744314 8.7675215,3.4213086 0.09501,0.039902 0.09501,0.09661 0,0.1364698 -0.354995,0.1489335 -8.7408055,3.4213399 -8.7674644,3.4213399 -0.023655,0 -0.03532,-0.01305 -0.03532,-0.0395 z"
   id="path3888" /><path
   style="fill:#ffe680;fill-opacity:0.816581;stroke-width:0.0185615"
   d="m 3.3689095,11.409793 c 0,-0.02569 0.025694,-0.103863 0.057098,-0.173724 0.031404,-0.06986 0.058239,-0.141637 0.059634,-0.159503 0.0014,-0.01787 0.0081,-0.03248 0.014897,-0.03248 0.015154,0 0.060173,-0.105674 0.060173,-0.141244 0,-0.01419 0.00745,-0.02581 0.016563,-0.02581 0.00911,0 0.011401,-0.0084 0.00509,-0.01856 -0.00631,-0.01021 -0.00327,-0.01856 0.00675,-0.01856 0.018088,0 0.069312,-0.126468 0.062024,-0.153132 -0.00209,-0.0077 0.00504,-0.01392 0.015852,-0.01392 0.010811,0 0.014495,-0.0084 0.00819,-0.01856 -0.00631,-0.01021 -0.0043,-0.01856 0.00446,-0.01856 0.016669,0 0.070811,-0.128988 0.064276,-0.153132 -0.00207,-0.0077 0.00508,-0.01392 0.015889,-0.01392 0.010811,0 0.014495,-0.0084 0.00819,-0.01856 -0.00631,-0.01021 -0.0043,-0.01856 0.00446,-0.01856 0.016669,0 0.070811,-0.128988 0.064276,-0.153133 -0.00207,-0.0077 0.00459,-0.01392 0.014794,-0.01392 0.010209,0 0.016873,-0.0063 0.014809,-0.01392 -0.00206,-0.0077 0.014284,-0.04839 0.036328,-0.09051 0.022044,-0.04212 0.034869,-0.0818 0.028501,-0.08817 -0.00637,-0.0064 -0.00183,-0.01158 0.010076,-0.01158 0.01191,0 0.019967,-0.0063 0.017903,-0.01392 -0.00206,-0.0077 0.014811,-0.04942 0.0375,-0.092808 0.022689,-0.043387 0.036835,-0.078886 0.031436,-0.078886 -0.0054,0 0.01611,-0.04594 0.047798,-0.1020882 0.031688,-0.056148 0.05257,-0.1020882 0.046404,-0.1020882 -0.00617,0 0.014716,-0.04594 0.046404,-0.1020881 0.031688,-0.056148 0.052289,-0.1020882 0.04578,-0.1020882 -0.00651,0 0.00938,-0.036209 0.03532,-0.080464 0.025935,-0.044255 0.041601,-0.086019 0.034812,-0.092807 -0.00679,-0.00679 -0.00121,-0.012343 0.012405,-0.012343 0.013612,0 0.019473,-0.00528 0.013024,-0.011725 -0.00645,-0.00645 0.00885,-0.046834 0.033998,-0.089745 0.025148,-0.042911 0.040168,-0.083575 0.03338,-0.090364 -0.00679,-0.00679 -0.00121,-0.012343 0.012405,-0.012343 0.013612,0 0.019473,-0.00528 0.013024,-0.011725 -0.00645,-0.00645 0.00966,-0.048212 0.035793,-0.092807 0.026135,-0.044596 0.041935,-0.081083 0.035111,-0.081083 -0.00682,0 0.013877,-0.04594 0.046002,-0.1020882 0.032125,-0.056149 0.053548,-0.1020882 0.047607,-0.1020882 -0.00594,0 0.015125,-0.04594 0.046813,-0.1020881 0.031688,-0.056149 0.05257,-0.1020882 0.046404,-0.1020882 -0.00617,0 0.014715,-0.04594 0.046404,-0.1020882 0.031688,-0.056149 0.05196,-0.1020881 0.045049,-0.1020881 -0.00691,0 0.00659,-0.030991 0.029997,-0.068869 0.063,-0.1019359 0.064709,-0.3008879 0.00351,-0.409089 -0.024538,-0.043387 -0.039289,-0.078886 -0.03278,-0.078886 0.00651,0 -0.014092,-0.04594 -0.04578,-0.1020881 -0.031688,-0.056148 -0.052754,-0.1020882 -0.046813,-0.1020882 0.00594,0 -0.015482,-0.04594 -0.047607,-0.1020882 -0.032125,-0.056148 -0.052826,-0.1020881 -0.046002,-0.1020881 0.00682,0 -0.00898,-0.036487 -0.035111,-0.081083 -0.026135,-0.044595 -0.042242,-0.086359 -0.035793,-0.092807 0.00645,-0.00645 5.877e-4,-0.011725 -0.013024,-0.011725 -0.013612,0 -0.019194,-0.00555 -0.012405,-0.012343 0.00679,-0.00679 -0.00823,-0.047452 -0.03338,-0.090364 -0.025148,-0.042911 -0.040447,-0.083296 -0.033998,-0.089745 0.00645,-0.00645 5.876e-4,-0.011724 -0.013024,-0.011724 -0.013612,0 -0.019194,-0.00555 -0.012405,-0.012343 0.00679,-0.00679 -0.00888,-0.048552 -0.034812,-0.092808 -0.025935,-0.044255 -0.041829,-0.080464 -0.03532,-0.080464 0.00651,0 -0.014092,-0.04594 -0.04578,-0.1020881 -0.031688,-0.056149 -0.05257,-0.1020882 -0.046404,-0.1020882 0.00617,0 -0.014715,-0.04594 -0.046404,-0.1020882 -0.031688,-0.056148 -0.05257,-0.1020881 -0.046404,-0.1020881 0.00617,0 -0.014715,-0.04594 -0.046404,-0.1020882 C 4.0441709,6.1712297 4.0226616,6.12529 4.0280608,6.12529 c 0.0054,0 -0.00875,-0.035499 -0.031436,-0.078886 -0.022689,-0.043387 -0.039564,-0.085151 -0.0375,-0.092807 0.00206,-0.00766 -0.00599,-0.013921 -0.017903,-0.013921 -0.01191,0 -0.016444,-0.00521 -0.010076,-0.011579 C 3.9375158,5.921727 3.9246858,5.882053 3.9026448,5.83993 3.8806008,5.797807 3.8642538,5.757078 3.8663168,5.749421 3.8683768,5.741761 3.8617168,5.7355 3.8515078,5.7355 c -0.010209,0 -0.016866,-0.00626 -0.014794,-0.013921 0.00653,-0.024145 -0.047607,-0.1531322 -0.064276,-0.1531322 -0.00876,0 -0.010766,-0.00835 -0.00446,-0.018562 0.00631,-0.010209 0.00263,-0.018561 -0.00819,-0.018561 -0.010811,0 -0.017945,-0.00626 -0.015852,-0.013921 0.00729,-0.026665 -0.043936,-0.1531323 -0.062024,-0.1531323 -0.01002,0 -0.013055,-0.00835 -0.00675,-0.018561 0.00631,-0.010209 0.00263,-0.018562 -0.00819,-0.018562 -0.010811,0 -0.017945,-0.00626 -0.015852,-0.013921 0.00729,-0.026665 -0.043936,-0.1531323 -0.062024,-0.1531323 -0.01002,0 -0.013055,-0.00835 -0.00675,-0.018562 0.00631,-0.010209 0.00402,-0.018561 -0.00509,-0.018561 -0.00911,0 -0.016563,-0.011615 -0.016563,-0.02581 0,-0.03557 -0.04502,-0.1412431 -0.060173,-0.1412431 -0.0068,0 -0.013501,-0.014617 -0.014897,-0.032483 -0.0014,-0.017866 -0.028231,-0.089642 -0.059634,-0.1595029 -0.031404,-0.069861 -0.057098,-0.1482231 -0.057098,-0.1741377 0,-0.045123 0.00334,-0.04656 0.078886,-0.033953 0.043387,0.00724 0.09289,0.014306 0.1100062,0.015702 0.017116,0.0014 0.027064,0.0091 0.022106,0.017122 -0.00832,0.013469 0.025383,0.021612 0.081145,0.019604 0.012651,-4.556e-4 0.018423,0.00658 0.012826,0.015637 -0.00928,0.015022 2.637e-4,0.018239 0.070901,0.02389 0.012761,0.00102 0.027457,0.00745 0.032658,0.014288 0.019192,0.025232 0.2073718,0.089764 0.2267805,0.077769 0.011959,-0.00739 0.014723,-0.00374 0.00684,0.00902 -0.012277,0.019864 -0.0048,0.023043 0.067833,0.028854 0.012761,0.00102 0.03472,0.012777 0.048797,0.026126 0.014077,0.013348 0.037047,0.019875 0.051044,0.014504 0.013997,-0.00537 0.025449,-0.00246 0.025449,0.00647 0,0.020063 0.1600187,0.076256 0.1748671,0.061407 0.00591,-0.00591 0.010748,-3.07e-4 0.010748,0.012454 0,0.012761 0.010366,0.019747 0.023036,0.015523 0.01267,-0.00422 0.034521,0.00381 0.048558,0.017843 0.014037,0.014037 0.034919,0.02239 0.046404,0.018562 0.011485,-0.00383 0.032474,0.00463 0.046642,0.0188 0.014168,0.014169 0.036673,0.021573 0.050011,0.016455 0.013337,-0.00512 0.026878,-0.00219 0.030089,0.00651 0.00321,0.0087 0.022545,0.018672 0.042963,0.022159 0.020418,0.00349 0.042051,0.013024 0.048074,0.021192 0.00602,0.00817 0.028993,0.01621 0.051044,0.017871 0.022051,0.00166 0.040093,0.010291 0.040093,0.019178 0,0.00889 0.010366,0.012703 0.023036,0.00848 0.01267,-0.00422 0.034629,0.00391 0.048797,0.018082 0.014169,0.014169 0.036673,0.021573 0.050011,0.016455 0.013337,-0.00512 0.026877,-0.00219 0.030089,0.00651 0.00321,0.0087 0.022545,0.018672 0.042963,0.022159 0.020418,0.00349 0.041299,0.01177 0.046404,0.018407 0.0051,0.00664 0.025986,0.014989 0.046404,0.018561 0.020418,0.00357 0.042051,0.013179 0.048074,0.021347 0.00602,0.00817 0.028993,0.01621 0.051044,0.017871 0.022051,0.00166 0.040093,0.010489 0.040093,0.019617 0,0.00913 0.011989,0.011997 0.026643,0.00637 0.014654,-0.00562 0.029271,-0.00311 0.032483,0.00559 0.00321,0.0087 0.022545,0.018672 0.042963,0.022159 0.020418,0.00349 0.041299,0.01177 0.046404,0.018407 0.0051,0.00664 0.025986,0.014989 0.046404,0.018561 0.020418,0.00357 0.041299,0.011925 0.046404,0.018562 0.0051,0.00664 0.025986,0.014989 0.046404,0.018561 0.020418,0.00357 0.041662,0.012549 0.04721,0.019948 0.00555,0.0074 0.026429,0.01616 0.046404,0.019469 0.019974,0.00331 0.053022,0.015213 0.07344,0.026454 0.020418,0.01124 0.053828,0.023361 0.074246,0.026935 0.020418,0.00357 0.041299,0.011927 0.046404,0.018563 0.0051,0.00664 0.025986,0.014989 0.046404,0.018561 0.020418,0.00357 0.041299,0.011925 0.046404,0.018561 0.0051,0.00664 0.025986,0.014989 0.046404,0.018562 0.020418,0.00357 0.041662,0.012549 0.047209,0.019948 0.00555,0.0074 0.026429,0.01616 0.046404,0.019469 0.019974,0.00331 0.055111,0.016343 0.078081,0.028964 0.02297,0.012621 0.041763,0.017454 0.041763,0.010741 0,-0.00671 0.012529,-0.00181 0.027842,0.0109 0.015313,0.012709 0.02797,0.01582 0.028126,0.00691 1.485e-4,-0.00891 0.00642,-0.00659 0.013921,0.00515 0.0075,0.011741 0.030342,0.02427 0.05076,0.027842 0.020418,0.00357 0.041662,0.012549 0.04721,0.019948 0.00555,0.0074 0.026429,0.01616 0.046404,0.019469 0.019974,0.00331 0.055111,0.016343 0.07808,0.028964 0.02297,0.012621 0.041763,0.018285 0.041763,0.012586 0,-0.0057 0.020882,0.00332 0.046404,0.020043 0.025522,0.016723 0.046404,0.024245 0.046404,0.016717 0,-0.00753 0.012529,-0.00329 0.027842,0.00942 0.015313,0.012709 0.02797,0.01582 0.028126,0.00691 1.485e-4,-0.00891 0.00678,-0.00596 0.014727,0.00654 0.00794,0.012503 0.030785,0.025441 0.05076,0.02875 0.019974,0.00331 0.055111,0.016343 0.078081,0.028964 0.02297,0.012621 0.041763,0.018285 0.041763,0.012586 0,-0.0057 0.020882,0.00332 0.046404,0.020043 0.025522,0.016723 0.046404,0.025075 0.046404,0.018561 0,-0.00651 0.020882,0.00184 0.046404,0.018561 0.025522,0.016723 0.046404,0.024245 0.046404,0.016717 0,-0.00753 0.012529,-0.00329 0.027842,0.00942 0.015313,0.012709 0.027842,0.017614 0.027842,0.0109 0,-0.00671 0.018793,-0.00177 0.041763,0.010991 0.02297,0.012759 0.04594,0.023789 0.051044,0.024513 0.0051,7.235e-4 0.028074,0.011754 0.051044,0.024513 0.02297,0.012758 0.041763,0.018534 0.041763,0.012835 0,-0.0057 0.020882,0.00332 0.046404,0.020043 0.025522,0.016723 0.046404,0.025075 0.046404,0.018562 0,-0.00651 0.020882,0.00184 0.046404,0.018561 0.025522,0.016723 0.046404,0.024245 0.046404,0.016717 0,-0.00753 0.012529,-0.00329 0.027842,0.00942 0.015313,0.012709 0.027842,0.017614 0.027842,0.0109 0,-0.00671 0.018794,-0.00177 0.041763,0.010991 0.02297,0.012758 0.04594,0.023789 0.051044,0.024513 0.0051,7.235e-4 0.028074,0.011754 0.051044,0.024513 0.02297,0.012759 0.041763,0.018534 0.041763,0.012836 0,-0.0057 0.018794,0.00195 0.041763,0.017003 0.02297,0.01505 0.050116,0.028835 0.060325,0.030633 0.010209,0.0018 0.031091,0.00718 0.046404,0.011967 0.047119,0.014721 0.064591,0.019003 0.074246,0.018199 0.0051,-4.253e-4 0.030162,0.010783 0.055684,0.024907 0.025522,0.014124 0.05058,0.026273 0.055684,0.026996 0.0051,7.235e-4 0.028074,0.011754 0.051044,0.024513 0.02297,0.012758 0.041763,0.018534 0.041763,0.012835 0,-0.0057 0.022602,0.00445 0.050228,0.022549 0.027625,0.018101 0.050595,0.030283 0.051044,0.027072 4.492e-4,-0.00321 0.015434,-0.00112 0.033299,0.00464 0.059113,0.01907 0.078785,0.024322 0.088167,0.023541 0.0051,-4.251e-4 0.030162,0.010783 0.055684,0.024907 0.025522,0.014124 0.05058,0.026698 0.055685,0.027942 0.028868,0.00703 0.090513,0.033595 0.1392111,0.059985 0.030627,0.016597 0.055684,0.027932 0.055684,0.025188 0,-0.00274 0.012529,-0.00107 0.027842,0.00371 0.015313,0.00478 0.040371,0.012612 0.055684,0.017396 0.015313,0.00478 0.032018,0.00835 0.037123,0.00792 0.0051,-4.251e-4 0.030162,0.010677 0.055684,0.024672 0.025522,0.013995 0.055785,0.027041 0.067252,0.028991 0.011466,0.00195 0.05323,0.01782 0.092807,0.035268 0.039578,0.017447 0.090753,0.039224 0.1137229,0.048392 0.02297,0.00917 0.060557,0.024264 0.083527,0.033547 0.067567,0.027307 0.1145782,0.044105 0.1368571,0.048903 0.023302,0.00502 0.1473469,0.058082 0.1969977,0.084272 0.017727,0.00935 0.039677,0.017001 0.048777,0.017001 0.0091,0 0.048889,0.01411 0.088419,0.031355 0.03953,0.017245 0.076049,0.032273 0.081153,0.033395 0.029412,0.00647 0.1117985,0.037201 0.1763341,0.065784 0.040835,0.018086 0.1368915,0.055826 0.2134575,0.083867 0.07657,0.028041 0.172622,0.065555 0.213457,0.083365 0.04083,0.01781 0.157773,0.063585 0.259861,0.1017216 0.102088,0.038137 0.19355,0.076615 0.203248,0.085507 0.0097,0.00889 0.02747,0.016166 0.0395,0.016166 0.01202,0 0.0542,0.014006 0.09374,0.031124 0.03953,0.017118 0.08023,0.03294 0.09043,0.035159 0.02178,0.00473 0.19444,0.072784 0.287703,0.1133919 0.08776,0.03821 0.123284,0.052068 0.232019,0.090502 0.05104,0.018042 0.109512,0.043576 0.12993,0.056742 0.02042,0.013166 0.0413,0.023807 0.0464,0.023646 0.01158,-3.656e-4 0.0716,0.019151 0.120649,0.039227 0.0482,0.019729 0.108872,0.042589 0.12065,0.045458 0.0051,0.00124 0.02807,0.0127 0.05104,0.025458 0.02297,0.012759 0.04176,0.018534 0.04176,0.012836 0,-0.0057 0.01946,0.00239 0.04325,0.017973 0.02378,0.015584 0.04808,0.0235 0.05399,0.017591 0.01805,-0.01805 0.03599,0.063806 0.02297,0.1048206 -0.0067,0.021187 -0.01706,0.033687 -0.02297,0.027777 -0.0059,-0.00591 -0.03021,0.00201 -0.05399,0.017591 -0.02379,0.015584 -0.04325,0.023672 -0.04325,0.017973 0,-0.0057 -0.01879,7.43e-5 -0.04176,0.012835 -0.02297,0.012758 -0.04594,0.024215 -0.05104,0.025458 -0.0051,0.00124 -0.02599,0.00861 -0.0464,0.01636 -0.05065,0.019237 -0.09095,0.031554 -0.102088,0.031203 -0.0051,-1.671e-4 -0.02807,0.012021 -0.05104,0.027072 -0.02297,0.01505 -0.04176,0.023129 -0.04176,0.017954 0,-0.00518 -0.03313,0.00786 -0.07363,0.028966 -0.04049,0.021107 -0.08435,0.040593 -0.09745,0.043302 -0.03651,0.00755 -0.116526,0.038142 -0.237278,0.090719 -0.09326,0.040608 -0.26592,0.1086573 -0.287703,0.1133919 -0.01021,0.00222 -0.0478,0.016665 -0.08353,0.032101 -0.03573,0.015436 -0.169373,0.067982 -0.296983,0.116767 -0.127611,0.048785 -0.26543,0.1033639 -0.306265,0.1212859 -0.06474,0.028415 -0.147492,0.059145 -0.176334,0.065485 -0.0051,0.00112 -0.04162,0.01615 -0.08115,0.033395 -0.03953,0.017245 -0.081711,0.031355 -0.093736,0.031355 -0.012025,0 -0.029798,0.00725 -0.039497,0.016121 -0.014971,0.013686 -0.1845323,0.083044 -0.212529,0.086934 -0.0051,7.091e-4 -0.041623,0.015399 -0.081153,0.032644 -0.03953,0.017245 -0.081711,0.031355 -0.093735,0.031355 -0.012025,0 -0.029798,0.00725 -0.039497,0.016121 -0.01448,0.013238 -0.1795996,0.081148 -0.212529,0.087409 -0.017616,0.00335 -0.1807057,0.066525 -0.2969838,0.1150414 -0.053222,0.022207 -0.1163439,0.046315 -0.1299304,0.049625 -0.0051,0.00124 -0.025986,0.011582 -0.046404,0.022975 -0.020418,0.011393 -0.0433,0.021766 -0.050849,0.023052 -0.00755,0.00129 -0.026343,0.00629 -0.041763,0.011111 -0.01542,0.00483 -0.040654,0.012721 -0.056074,0.017546 -0.01542,0.00483 -0.032566,0.00833 -0.038101,0.00779 -0.00554,-5.42e-4 -0.030506,0.012408 -0.05549,0.028778 -0.024984,0.01637 -0.045425,0.025101 -0.045425,0.019402 0,-0.0057 -0.018794,7.42e-5 -0.041763,0.012835 -0.02297,0.012758 -0.04594,0.023789 -0.051044,0.024513 -0.0051,7.239e-4 -0.030162,0.012872 -0.055685,0.026996 -0.025522,0.014124 -0.048404,0.024498 -0.050849,0.023052 -0.00245,-0.00145 -0.017062,0.00132 -0.032483,0.00614 -0.01542,0.00483 -0.040654,0.012721 -0.056074,0.017546 -0.01542,0.00483 -0.030405,0.00691 -0.033299,0.00464 -0.00289,-0.00227 -0.027864,0.010677 -0.05549,0.028778 -0.027625,0.018101 -0.050228,0.028248 -0.050228,0.022549 0,-0.0057 -0.018794,7.42e-5 -0.041763,0.012835 -0.02297,0.012758 -0.04594,0.023789 -0.051044,0.024513 -0.0051,7.239e-4 -0.025986,0.010637 -0.046404,0.022029 -0.020418,0.011393 -0.041299,0.020998 -0.046404,0.021346 -0.00954,6.497e-4 -0.03714,0.00884 -0.1020882,0.030288 -0.020418,0.00674 -0.03749,0.00963 -0.037939,0.00642 -4.492e-4,-0.00321 -0.023419,0.00897 -0.051044,0.027072 -0.027625,0.018101 -0.050228,0.028248 -0.050228,0.022549 0,-0.0057 -0.018794,7.43e-5 -0.041763,0.012835 -0.02297,0.012758 -0.04594,0.023789 -0.051044,0.024513 -0.0051,7.239e-4 -0.028074,0.011754 -0.051044,0.024513 -0.02297,0.012758 -0.041763,0.017704 -0.041763,0.010991 0,-0.00671 -0.012529,-0.00181 -0.027842,0.010901 -0.015313,0.012709 -0.027842,0.016947 -0.027842,0.00942 0,-0.00753 -0.020882,-5.9e-6 -0.046404,0.016717 -0.025522,0.016723 -0.046404,0.025075 -0.046404,0.018561 0,-0.00651 -0.020882,0.00184 -0.046404,0.018561 -0.025522,0.016723 -0.046404,0.025742 -0.046404,0.020043 0,-0.0057 -0.018794,7.42e-5 -0.041763,0.012835 -0.02297,0.012759 -0.048028,0.024538 -0.055684,0.026175 -0.00766,0.0016 -0.020186,0.005 -0.027842,0.0075 -0.00766,0.0025 -0.020186,0.0035 -0.027842,0.0023 -0.00766,-0.0012 -0.013921,0.0075 -0.013921,0.01946 0,0.01191 -0.0055,0.01616 -0.012213,0.0094 -0.00672,-0.0067 -0.023423,-0.0029 -0.037123,0.0085 -0.0137,0.01137 -0.02491,0.01451 -0.02491,0.007 0,-0.0075 -0.020882,-5e-6 -0.046404,0.01672 -0.025522,0.01672 -0.046404,0.02508 -0.046404,0.01856 0,-0.0065 -0.020882,0.0018 -0.046404,0.01856 -0.025522,0.01672 -0.046404,0.02574 -0.046404,0.02004 0,-0.0057 -0.018794,7.5e-5 -0.041763,0.01284 -0.02297,0.01276 -0.048028,0.02454 -0.055684,0.02618 -0.00766,0.0016 -0.020186,0.005 -0.027842,0.0075 -0.00766,0.0025 -0.020186,0.0035 -0.027842,0.0023 -0.00766,-0.0012 -0.013921,0.0075 -0.013921,0.01946 0,0.01191 -0.0055,0.01616 -0.012213,0.0094 -0.00672,-0.0067 -0.023423,-0.0029 -0.037123,0.0085 -0.0137,0.01137 -0.02491,0.01451 -0.02491,0.007 0,-0.0075 -0.020882,-6e-6 -0.046404,0.01672 -0.025522,0.01672 -0.046404,0.02574 -0.046404,0.02004 0,-0.0057 -0.018794,-3.7e-5 -0.041763,0.01258 -0.02297,0.01262 -0.058106,0.02566 -0.07808,0.02896 -0.019975,0.0033 -0.040856,0.01207 -0.046404,0.01947 -0.00555,0.0074 -0.026792,0.01638 -0.04721,0.01995 -0.020418,0.0036 -0.04326,0.0161 -0.05076,0.02784 -0.0075,0.01174 -0.013765,0.01406 -0.013921,0.0052 -1.485e-4,-0.0089 -0.012813,-0.0058 -0.028126,0.0069 -0.015313,0.01271 -0.027842,0.01761 -0.027842,0.0109 0,-0.0067 -0.018793,-0.0019 -0.041763,0.01074 -0.02297,0.01262 -0.058106,0.02565 -0.078081,0.02896 -0.019975,0.0033 -0.040856,0.01207 -0.046404,0.01947 -0.00555,0.0074 -0.026792,0.01638 -0.047209,0.01995 -0.020418,0.0036 -0.041299,0.01192 -0.046404,0.01856 -0.0051,0.0066 -0.025986,0.01499 -0.046404,0.01856 -0.020418,0.0036 -0.042233,0.01473 -0.048479,0.02479 -0.00625,0.01006 -0.016826,0.01694 -0.023511,0.0153 -0.024287,-0.006 -0.1229058,0.02168 -0.1229058,0.03447 0,0.0072 -0.018042,0.0145 -0.040093,0.01616 -0.022051,0.0017 -0.045021,0.0097 -0.051044,0.01787 -0.00602,0.0082 -0.027656,0.01777 -0.048074,0.02135 -0.020418,0.0036 -0.041299,0.01192 -0.046404,0.01856 -0.0051,0.0066 -0.025986,0.01499 -0.046404,0.01856 -0.020418,0.0036 -0.041299,0.01192 -0.046404,0.01856 -0.0051,0.0066 -0.025986,0.01492 -0.046404,0.01841 -0.020418,0.0035 -0.039751,0.01346 -0.042963,0.02216 -0.00321,0.0087 -0.017829,0.01122 -0.032483,0.0056 -0.014654,-0.0056 -0.026643,-0.0028 -0.026643,0.0064 0,0.0091 -0.018042,0.01796 -0.040093,0.01962 -0.022051,0.0017 -0.045021,0.0097 -0.051044,0.01787 -0.00602,0.0082 -0.027656,0.01777 -0.048074,0.02135 -0.020418,0.0036 -0.041299,0.01192 -0.046404,0.01856 -0.0051,0.0066 -0.025986,0.01492 -0.046404,0.01841 -0.020418,0.0035 -0.039751,0.01346 -0.042963,0.02216 -0.00321,0.0087 -0.016752,0.01163 -0.030089,0.0065 -0.013337,-0.0051 -0.035842,0.0023 -0.050011,0.01646 -0.014169,0.01417 -0.036127,0.02231 -0.048797,0.01808 -0.01267,-0.0042 -0.023036,-4.07e-4 -0.023036,0.0085 0,0.0089 -0.018042,0.01752 -0.040093,0.01918 -0.022051,0.0017 -0.045021,0.0097 -0.051044,0.01787 -0.00602,0.0082 -0.027656,0.01771 -0.048074,0.02119 -0.020418,0.0035 -0.039751,0.01346 -0.042963,0.02216 -0.00321,0.0087 -0.016752,0.01163 -0.030089,0.0065 -0.013337,-0.0051 -0.035842,0.0023 -0.050011,0.01646 -0.014168,0.01417 -0.035158,0.02263 -0.046642,0.0188 -0.011485,-0.0038 -0.032367,0.0045 -0.046404,0.01856 -0.014037,0.01404 -0.035888,0.02207 -0.048558,0.01784 -0.01267,-0.0042 -0.023036,0.0028 -0.023036,0.01552 0,0.01276 -0.00484,0.01837 -0.010748,0.01245 -0.014848,-0.01485 -0.1748671,0.04134 -0.1748671,0.06141 0,0.0089 -0.011452,0.01184 -0.025449,0.0065 -0.013997,-0.0054 -0.036967,0.0012 -0.051044,0.0145 -0.014077,0.01335 -0.036036,0.0251 -0.048797,0.02613 -0.072637,0.0058 -0.08011,0.009 -0.067833,0.02885 0.00789,0.01276 0.00512,0.01641 -0.00684,0.009 -0.019409,-0.012 -0.2075885,0.05254 -0.2267805,0.07777 -0.0052,0.0068 -0.019897,0.01327 -0.032658,0.01429 -0.070637,0.0057 -0.080185,0.0089 -0.070901,0.02389 0.0056,0.0091 -1.745e-4,0.01609 -0.012826,0.01564 -0.054974,-0.002 -0.089525,0.006 -0.081554,0.01894 0.00473,0.0077 -0.00939,0.01567 -0.031387,0.01781 -0.021995,0.0021 -0.071313,0.0093 -0.1095964,0.01595 -0.065188,0.0113 -0.069606,0.0091 -0.069606,-0.03464 z"
   id="path4322" /></svg>
