<?xml version="1.0" encoding="UTF-8" standalone="no"?>
<svg
   style="clip-rule:evenodd;fill-rule:evenodd;stroke-linejoin:round;stroke-miterlimit:2"
   viewBox="0 0 48 48"
   version="1.1"
   id="svg17"
   sodipodi:docname="Container (копия).svg"
   inkscape:version="1.2.2 (b0a8486541, 2022-12-01)"
   xmlns:inkscape="http://www.inkscape.org/namespaces/inkscape"
   xmlns:sodipodi="http://sodipodi.sourceforge.net/DTD/sodipodi-0.dtd"
   xmlns="http://www.w3.org/2000/svg"
   xmlns:svg="http://www.w3.org/2000/svg">
  <sodipodi:namedview
     id="namedview19"
     pagecolor="#ffffff"
     bordercolor="#000000"
     borderopacity="0.25"
     inkscape:showpageshadow="2"
     inkscape:pageopacity="0.0"
     inkscape:pagecheckerboard="0"
     inkscape:deskcolor="#d1d1d1"
     showgrid="false"
     inkscape:zoom="17.958333"
     inkscape:cx="24"
     inkscape:cy="28.454757"
     inkscape:window-width="1920"
     inkscape:window-height="1025"
     inkscape:window-x="0"
     inkscape:window-y="0"
     inkscape:window-maximized="1"
     inkscape:current-layer="svg17" />
  <g
     transform="matrix(0.76648039,0,0,1.0126764,-0.01272295,-7.9703256)"
     id="g4">
    <path
       d="m 61.122,15.88 c 0,-2.762 -2.239,-5 -5,-5 H 7.878 c -2.761,0 -5,2.238 -5,5 v 32.246 c 0,2.761 2.239,5 5,5 h 48.244 c 2.761,0 5,-2.239 5,-5 z"
       style="fill:#02a0ac"
       id="path2" />
  </g>
  <g
     transform="matrix(0.78731974,0,0,1.0146515,-1.2846275,-8.0250826)"
     id="g8">
    <path
       d="m 61.122,20.652 c 0,-1.326 -0.527,-2.598 -1.465,-3.536 -0.938,-0.937 -2.209,-1.464 -3.535,-1.464 h -25.58 c -1.232,0 -2.42,-0.455 -3.337,-1.277 -0.768,-0.689 -1.713,-1.535 -2.481,-2.224 -0.917,-0.822 -2.105,-1.277 -3.337,-1.277 H 7.878 c -1.326,0 -2.597,0.527 -3.535,1.465 -0.938,0.937 -1.465,2.209 -1.465,3.535 v 32.252 c 0,2.761 2.239,5 5,5 h 48.244 c 2.761,0 5,-2.239 5,-5 z"
       style="fill:url(#_Linear1)"
       id="path6" />
  </g>
  <path
     d="m 31.355805,32.026215 -25.2050343,0.0038 v -7.567582 c 0,-2.86758 0.125387,-4.73807 0.3721482,-5.607669 0.3741728,-1.339599 1.1831945,-2.46037 2.4311085,-3.362316 1.2479136,-0.903849 2.8578636,-1.354822 4.8338976,-1.354822 1.525003,0 2.805277,0.260689 3.844869,0.782067 1.037568,0.519477 1.85468,1.181663 2.447287,1.982757 0.592607,0.801098 0.984982,1.617415 1.177125,2.445151 0.236641,1.12648 0.35597,2.757213 0.35597,4.892198 v 2.077902 h 9.742629 c 0.303384,-0.646966 0.629015,-1.272998 1.114427,-1.805796 2.305708,-2.568833 6.168781,-2.722963 8.413814,-0.09704 0.485411,0.551823 0.827223,1.236847 1.090154,1.902839 h -4.55074 c -0.930375,0 -1.516913,0.83725 -1.516913,1.902841 v 1.902838 c 0,1.046561 0.586538,1.902838 1.516913,1.902838 h 4.55074 c -0.283157,0.665994 -0.728118,1.351016 -1.213531,1.90284 -2.325934,2.549804 -6.02518,2.528873 -8.290437,-0.09704 -0.465187,-0.551824 -0.851496,-1.158829 -1.114427,-1.805796 z M 10.351608,26.281544 h 7.044546 v -1.548911 c 0,-1.859072 -0.131464,-3.101628 -0.390351,-3.727661 -0.258885,-0.626035 -0.665419,-1.118871 -1.219599,-1.4747 -0.552157,-0.355831 -1.195327,-0.532797 -1.929513,-0.532797 -0.90408,0 -1.648379,0.249272 -2.234919,0.747816 -0.588563,0.500449 -0.954644,1.13219 -1.102291,1.897133 -0.111238,0.563238 -0.167873,1.693526 -0.167873,3.392762 z"
     style="clip-rule:evenodd;fill:#2b1100;fill-rule:nonzero;stroke-width:1.96178;stroke-linejoin:round;stroke-miterlimit:2"
     id="path6-3" />
  <defs
     id="defs15">
    <linearGradient
       id="_Linear1"
       x2="1"
       gradientTransform="matrix(0,-41.6338,41.6338,0,445.153,52.7218)"
       gradientUnits="userSpaceOnUse">
      <stop
         style="stop-color:rgb(0,130,140)"
         offset="0"
         id="stop10" />
      <stop
         style="stop-color:rgb(0,210,220)"
         offset="1"
         id="stop12" />
    </linearGradient>
  </defs>
</svg>
