<?xml version="1.0" encoding="UTF-8" standalone="no"?>
<svg
   style="fill-rule:evenodd;clip-rule:evenodd;stroke-linejoin:round;stroke-miterlimit:2"
   width="100%"
   height="100%"
   viewBox="0 0 16 16"
   xml:space="preserve"
   version="1.1"
   id="svg9"
   sodipodi:docname="Builtin-Domain.svg"
   inkscape:version="1.2.2 (b0a8486541, 2022-12-01)"
   xmlns:inkscape="http://www.inkscape.org/namespaces/inkscape"
   xmlns:sodipodi="http://sodipodi.sourceforge.net/DTD/sodipodi-0.dtd"
   xmlns="http://www.w3.org/2000/svg"
   xmlns:svg="http://www.w3.org/2000/svg"><sodipodi:namedview
   id="namedview7"
   pagecolor="#ffffff"
   bordercolor="#000000"
   borderopacity="0.25"
   inkscape:showpageshadow="2"
   inkscape:pageopacity="0.0"
   inkscape:pagecheckerboard="0"
   inkscape:deskcolor="#d1d1d1"
   showgrid="false"
   inkscape:zoom="53.875"
   inkscape:cx="8"
   inkscape:cy="8"
   inkscape:window-width="1920"
   inkscape:window-height="1025"
   inkscape:window-x="0"
   inkscape:window-y="0"
   inkscape:window-maximized="1"
   inkscape:current-layer="svg9" />
 <defs
   id="defs3">
  <style
   id="current-color-scheme"
   type="text/css">
   .ColorScheme-Text { color:#dfdfdf; } .ColorScheme-Highlight { color:#4285f4; } .ColorScheme-NeutralText { color:#ff9800; } .ColorScheme-PositiveText { color:#4caf50; } .ColorScheme-NegativeText { color:#f44336; }
  </style>
 </defs>
 <path
   style="fill:#55ff99;fill-opacity:0.3;stroke-width:1.08699"
   class="ColorScheme-Text"
   d="m 6.6013613,0.36995657 c 0,0 -1.6488479,0 -1.6488479,1.61229383 v 1.6122938 h -3.297695 c -1.09923187,0 -1.09923187,1.0748629 -1.09923187,1.0748629 V 7.8939948 H 2.2044342 c 1.6488475,0 1.6488475,1.6122941 1.6488475,1.6122941 0,0 0,1.6122941 -1.6488475,1.6122941 H 0.55558653 v 3.224586 c 0,1.074864 1.09923187,1.074864 1.09923187,1.074864 h 3.297695 v -1.074864 c 0,-2.149723 1.6488479,-2.149723 1.6488479,-2.149723 0,0 1.6488476,0 1.6488476,2.149723 v 1.074864 h 3.2976951 c 1.099232,0 1.099232,-1.074864 1.099232,-1.074864 v -3.224586 h 1.648849 c 1.648846,0 1.648846,-1.6122941 1.648846,-1.6122941 0,0 0,-1.6122941 -1.648846,-1.6122941 H 12.647136 V 4.6694071 c 0,-1.0748629 -1.099232,-1.0748629 -1.099232,-1.0748629 H 8.2502089 V 1.9822504 c 0,-1.61229383 -1.6488476,-1.61229383 -1.6488476,-1.61229383 z"
   id="path5" />
 <path
   style="fill:#217844;stroke-width:1.08632"
   class="ColorScheme-Text"
   d="m 6.6075385,0.34359876 c 0,0 -1.6429114,0 -1.6429114,1.61615134 V 3.5759013 H 1.6788044 c -1.09527432,0 -1.09527432,1.0774342 -1.09527432,1.0774342 V 7.885638 H 2.2264415 c 1.6429113,0 1.6429113,1.6161515 1.6429113,1.6161515 0,0 0,1.6161515 -1.6429113,1.6161515 H 0.58353008 v 3.232302 c 0,1.077435 1.09527432,1.077435 1.09527432,1.077435 h 3.2858227 v -1.077435 c 0,-2.154868 1.6429114,-2.154868 1.6429114,-2.154868 0,0 1.6429112,0 1.6429112,2.154868 v 1.077435 h 3.2858233 c 1.095274,0 1.095274,-1.077435 1.095274,-1.077435 v -3.232302 h 1.642911 c 1.642911,0 1.642911,-1.6161515 1.642911,-1.6161515 0,0 0,-1.6161515 -1.642911,-1.6161515 H 12.631547 V 4.6533355 c 0,-1.0774342 -1.095274,-1.0774342 -1.095274,-1.0774342 H 8.2504497 V 1.9597501 c 0,-1.61615134 -1.6429112,-1.61615134 -1.6429112,-1.61615134 z M 1.944956,14.382566 C 1.8901919,14.36856 1.8354286,14.359941 1.7795695,14.355636 Z M 11.466175,4.6533355 H 8.2504497 c -0.6045913,0 -1.0952741,-0.4826905 -1.0952741,-1.0774342 V 1.9597501 c 0,-0.5387171 -0.5476371,-0.5387171 -0.5476371,-0.5387171 0,0 -0.5476372,0 -0.5476372,0.5387171 v 1.6161512 c 0,0.5947437 -0.4906828,1.0774342 -1.0952742,1.0774342 H 1.6908524 l -0.012048,0.068956 V 6.808204 h 0.5476371 c 2.7381856,0 2.7381856,2.6935858 2.7381856,2.6935858 v 0 c 0,0 0,2.6935852 -2.7381856,2.6935852 h -0.547637 v 2.143016 l 0.070097,0.01185 h 2.1204509 c 0,-1.25952 0.4381097,-1.997563 0.8992202,-2.451163 0.8137887,-0.800533 1.8389655,-0.781139 1.8389655,-0.781139 0,0 1.0251766,-0.01939 1.8389653,0.781139 0.4611106,0.4536 0.8992202,1.191643 0.8992202,2.451163 h 2.1785014 l 0.01205,-0.06896 v -3.163346 c 0,-0.594744 0.490682,-1.077435 1.095274,-1.077435 0,0 1.642911,0 1.642911,0 0.547637,0 0.547637,-0.5387162 0.547637,-0.5387162 0,0 0,-0.5387174 -0.547637,-0.5387174 h -1.642911 c -0.604592,0 -1.095274,-0.4826905 -1.095274,-1.0774342 V 4.6651873 Z M 1.673328,4.7524591 1.6459464,4.9151517 C 1.6601844,4.86128 1.6689471,4.8074083 1.673328,4.7524591 Z m 9.762179,-0.1045108 -0.165386,-0.026936 c 0.05476,0.014007 0.109527,0.022627 0.165386,0.026936 z"
   id="path7" />
</svg>
