<?xml version="1.0" encoding="UTF-8" standalone="no"?>
<svg
   clip-rule="evenodd"
   fill-rule="evenodd"
   stroke-linejoin="round"
   stroke-miterlimit="2"
   viewBox="0 0 48 48"
   version="1.1"
   id="svg22"
   sodipodi:docname="Computer.svg"
   inkscape:version="1.2.2 (b0a8486541, 2022-12-01)"
   xmlns:inkscape="http://www.inkscape.org/namespaces/inkscape"
   xmlns:sodipodi="http://sodipodi.sourceforge.net/DTD/sodipodi-0.dtd"
   xmlns="http://www.w3.org/2000/svg"
   xmlns:svg="http://www.w3.org/2000/svg">
  <defs
     id="defs26" />
  <sodipodi:namedview
     id="namedview24"
     pagecolor="#ffffff"
     bordercolor="#000000"
     borderopacity="0.25"
     inkscape:showpageshadow="2"
     inkscape:pageopacity="0.0"
     inkscape:pagecheckerboard="0"
     inkscape:deskcolor="#d1d1d1"
     showgrid="false"
     inkscape:zoom="17.958333"
     inkscape:cx="24"
     inkscape:cy="24"
     inkscape:window-width="1920"
     inkscape:window-height="1025"
     inkscape:window-x="0"
     inkscape:window-y="0"
     inkscape:window-maximized="1"
     inkscape:current-layer="svg22" />
  <linearGradient
     id="a"
     x2="1"
     gradientTransform="matrix(0 -10.6328 10.6328 0 945.782 54.7328)"
     gradientUnits="userSpaceOnUse">
    <stop
       stop-color="#6b6b6b"
       offset="0"
       id="stop2" />
    <stop
       stop-color="#474747"
       offset="1"
       id="stop4" />
  </linearGradient>
  <linearGradient
     id="b"
     x2="1"
     gradientTransform="matrix(0,-31.5475,27.6386,0,436.556,33.8791)"
     gradientUnits="userSpaceOnUse">
    <stop
       stop-color="#0084b6"
       offset="0"
       id="stop7" />
    <stop
       stop-color="#02eeff"
       offset="1"
       id="stop9" />
  </linearGradient>
  <path
     transform="matrix(.75 0 0 .75 0 5.32088)"
     d="m24.462 40.093h15.076v7.9h-15.076z"
     fill="url(#a)"
     fill-rule="nonzero"
     id="path12" />
  <path
     d="m 39.440047,43.09567 c 0,-1.020037 -0.677309,-1.846373 -1.511119,-1.846373 H 10.754447 c -0.8338096,0 -1.5111196,0.826336 -1.5111196,1.846373 v 2.045405 c 0,1.01826 0.67731,1.846374 1.5111196,1.846374 h 27.174481 c 0.83381,0 1.511119,-0.828114 1.511119,-1.846374 z"
     fill="#a4a4a4"
     id="path14"
     style="fill:#280b0b;stroke-width:1.50983" />
  <g
     transform="matrix(0.96858029,0,0,0.89209701,0.83314063,5.499824)"
     id="g20">
    <path
       d="M 39.44,33.88 H 8.56 c -3.438,0 -6.228,-2.79 -6.228,-6.228 V 8.56 c 0,-3.438 2.79,-6.228 6.228,-6.228 h 30.88 c 3.438,0 6.228,2.79 6.228,6.228 v 19.092 c 0,3.438 -2.79,6.228 -6.228,6.228 z"
       fill="url(#b)"
       id="path16"
       style="fill:url(#b)" />
    <path
       d="M 39.44,33.88 H 8.56 c -3.438,0 -6.228,-2.79 -6.228,-6.228 V 8.56 c 0,-3.438 2.79,-6.228 6.228,-6.228 h 30.88 c 3.438,0 6.228,2.79 6.228,6.228 v 19.092 c 0,3.438 -2.79,6.228 -6.228,6.228 z m 0,-1 c 2.886,0 5.228,-2.342 5.228,-5.228 V 8.56 c 0,-2.886 -2.342,-5.228 -5.228,-5.228 H 8.56 c -2.886,0 -5.228,2.342 -5.228,5.228 v 19.092 c 0,2.886 2.342,5.228 5.228,5.228 z"
       fill="#3e3e3e"
       id="path18" />
  </g>
</svg>
