<?xml version="1.0" encoding="UTF-8" standalone="no"?>
<svg
   style="fill-rule:evenodd;clip-rule:evenodd;stroke-linejoin:round;stroke-miterlimit:2"
   width="100%"
   height="100%"
   viewBox="0 0 16 16"
   xml:space="preserve"
   version="1.1"
   id="svg7"
   sodipodi:docname="Group-Policy-Container.svg"
   inkscape:version="1.2.2 (b0a8486541, 2022-12-01)"
   xmlns:inkscape="http://www.inkscape.org/namespaces/inkscape"
   xmlns:sodipodi="http://sodipodi.sourceforge.net/DTD/sodipodi-0.dtd"
   xmlns="http://www.w3.org/2000/svg"
   xmlns:svg="http://www.w3.org/2000/svg"><sodipodi:namedview
   id="namedview9"
   pagecolor="#ffffff"
   bordercolor="#000000"
   borderopacity="0.25"
   inkscape:showpageshadow="2"
   inkscape:pageopacity="0.0"
   inkscape:pagecheckerboard="0"
   inkscape:deskcolor="#d1d1d1"
   showgrid="false"
   inkscape:zoom="53.875"
   inkscape:cx="8"
   inkscape:cy="8"
   inkscape:window-width="1920"
   inkscape:window-height="1025"
   inkscape:window-x="0"
   inkscape:window-y="0"
   inkscape:window-maximized="1"
   inkscape:current-layer="svg7" />
 <defs
   id="defs3">
  <style
   id="current-color-scheme"
   type="text/css">
   .ColorScheme-Text { color:#dfdfdf; } .ColorScheme-Highlight { color:#4285f4; } .ColorScheme-NeutralText { color:#ff9800; } .ColorScheme-PositiveText { color:#4caf50; } .ColorScheme-NegativeText { color:#f44336; }
  </style>
 </defs>
 <path
   style="fill:#2b1100"
   class="ColorScheme-Text"
   d="M3.704,0.354c-0.454,-0 -0.889,0.18 -1.21,0.501c-0.321,0.321 -0.502,0.757 -0.502,1.211c0,2.942 0,8.926 0,11.868c0,0.946 0.767,1.712 1.712,1.712c2.285,0 6.307,0 8.592,0c0.945,0 1.712,-0.766 1.712,-1.712c-0,-3.137 -0,-9.491 -0,-9.491l-3.457,-4.089l-6.847,-0Zm-0.619,1.092l-0,13.108l9.83,-0l0,-9.785l-2.82,-0.029l-0,-3.294l-7.01,0Zm5.863,3.306l-0.932,3.529l2.059,0.505l-3.747,4.171l0.921,-3.531l-2.06,-0.506l3.759,-4.168Z"
   id="path5" />
<path
   style="fill:#ffccaa;fill-opacity:0.964621;stroke-width:0.0185615"
   d="M 3.099768,8 V 1.4477958 h 3.4895591 3.4895589 v 1.6489401 1.64894 l 0.921845,0.012313 c 0.507015,0.00677 1.141818,0.012313 1.410673,0.012313 h 0.488828 v 4.890951 4.8909511 H 8 3.099768 Z m 5.1511432,2.83144 C 9.8027354,9.1030819 10.078078,8.7882244 10.04866,8.775693 10.029554,8.7675543 9.5724453,8.6528585 9.0328639,8.5208134 8.4932824,8.3887684 8.0470474,8.2759725 8.0412308,8.2701557 8.035414,8.2643391 8.2379603,7.4743098 8.4913335,6.5145353 8.7447066,5.5547606 8.9482229,4.7657017 8.943592,4.7610708 c -0.0069,-0.0069 -3.5056995,3.858005 -3.7046816,4.0923389 l -0.060393,0.071123 1.0308993,0.254186 c 0.8832252,0.2177747 1.0295858,0.2585763 1.021731,0.2848336 -0.035657,0.1191944 -0.9016813,3.4592647 -0.9016813,3.4775907 0,0.03206 -0.1098482,0.152669 1.9214448,-2.109703 z"
   id="path430" /></svg>
