<?xml version="1.0" encoding="UTF-8" standalone="no"?>
<svg
   width="32"
   height="32"
   version="1.1"
   id="svg14"
   sodipodi:docname="Group-Policy-Container.svg"
   inkscape:version="1.2.2 (b0a8486541, 2022-12-01)"
   xmlns:inkscape="http://www.inkscape.org/namespaces/inkscape"
   xmlns:sodipodi="http://sodipodi.sourceforge.net/DTD/sodipodi-0.dtd"
   xmlns="http://www.w3.org/2000/svg"
   xmlns:svg="http://www.w3.org/2000/svg">
  <defs
     id="defs18" />
  <sodipodi:namedview
     id="namedview16"
     pagecolor="#ffffff"
     bordercolor="#000000"
     borderopacity="0.25"
     inkscape:showpageshadow="2"
     inkscape:pageopacity="0.0"
     inkscape:pagecheckerboard="0"
     inkscape:deskcolor="#d1d1d1"
     showgrid="false"
     inkscape:zoom="26.9375"
     inkscape:cx="9.9303944"
     inkscape:cy="17.651972"
     inkscape:window-width="1920"
     inkscape:window-height="1008"
     inkscape:window-x="0"
     inkscape:window-y="0"
     inkscape:window-maximized="1"
     inkscape:current-layer="svg14" />
  <path
     style="opacity:0.2;stroke-width:1.03047"
     d="M 5.5301053,3 C 4.7289486,3 4.0839742,3.630423 4.0839742,4.4135045 V 29.856584 c 0,0.782516 0.6449744,1.413505 1.4461311,1.413505 H 25.77594 c 0.800579,0 1.446131,-0.630989 1.446131,-1.413505 V 12.086814 L 19.85995,10.067523 17.756486,3 Z"
     id="path2" />
  <path
     style="fill:#ffbc8e;stroke-width:1.05154;fill-opacity:1"
     d="m 5.5332412,0.76515315 c -0.8012877,0 -1.4463679,0.65635135 -1.4463679,1.47164015 V 28.726315 c 0,0.814699 0.6450802,1.471639 1.4463679,1.471639 H 25.782394 c 0.800708,0 1.446366,-0.65694 1.446366,-1.471639 V 10.225697 L 19.865432,8.1233534 17.761624,0.76515315 Z"
     id="path4" />
  <path
     style="opacity:0.2;stroke-width:0.988029"
     d="M 27.243299,10.657205 17.750602,2.3272527 v 7.0283971 c 0,0.7215822 0.662115,1.3015552 1.483234,1.3015552 z"
     id="path6" />
  <path
     style="fill:#e55b00;stroke-width:1.06262;fill-opacity:1"
     d="M 27.290394,10.287428 17.768396,0.68213684 V 8.7866009 c 0,0.8320583 0.664159,1.5008271 1.487812,1.5008271 z"
     id="path8" />
  <path
     style="opacity:0.2;fill:#ffffff;stroke-width:1.28949"
     d="m 5.4466713,0.61327672 c -0.809214,0 -1.460675,0.97795928 -1.460675,2.19197408 v 1.565259 c 0,-1.2140149 0.651461,-2.191974 1.460675,-2.191974 H 17.796014 V 0.61327672 Z"
     id="path10" />
  <path
     style="fill:#333333;stroke-width:0.994712"
     d="m 13.767673,12.051024 -0.136123,1.547813 a 4.8044623,4.6183839 0 0 0 -1.402664,0.778689 l -1.463823,-0.66198 -1.5289239,2.54461 1.3296699,0.887745 a 4.8044623,4.6183839 0 0 0 -0.07496,0.780603 4.8044623,4.6183839 0 0 0 0.07102,0.780603 l -1.3276977,0.883918 1.5289237,2.546525 1.459876,-0.660069 a 4.8044623,4.6183839 0 0 0 1.408584,0.774864 l 0.13415,1.551639 h 3.057849 l 0.13415,-1.547813 a 4.8044623,4.6183839 0 0 0 1.404638,-0.780603 l 1.463822,0.661982 1.528924,-2.546525 -1.329671,-0.885831 a 4.8044623,4.6183839 0 0 0 0.073,-0.77869 4.8044623,4.6183839 0 0 0 -0.06905,-0.782515 l 1.325726,-0.882006 -1.528924,-2.544611 -1.459876,0.660068 a 4.8044623,4.6183839 0 0 0 -1.408584,-0.776777 l -0.13415,-1.551639 z m 1.526952,3.91832 a 2.0201528,1.9593776 0 0 1 2.020152,1.95916 2.0201528,1.9593776 0 0 1 -2.020152,1.959159 2.0201528,1.9593776 0 0 1 -2.020153,-1.959159 2.0201528,1.9593776 0 0 1 2.020153,-1.95916 z"
     id="path12" />
</svg>
