<?xml version="1.0" encoding="UTF-8" standalone="no"?>
<svg
   width="100%"
   height="100%"
   viewBox="0 0 48 48"
   xml:space="preserve"
   style="fill-rule:evenodd;clip-rule:evenodd;stroke-linecap:round;stroke-linejoin:round;stroke-miterlimit:1.5;"
   version="1.1"
   id="svg13"
   sodipodi:docname="inheritance-indicator.svg"
   inkscape:version="1.2.2 (b0a8486541, 2022-12-01)"
   xmlns:inkscape="http://www.inkscape.org/namespaces/inkscape"
   xmlns:sodipodi="http://sodipodi.sourceforge.net/DTD/sodipodi-0.dtd"
   xmlns="http://www.w3.org/2000/svg"
   xmlns:svg="http://www.w3.org/2000/svg"><sodipodi:namedview
     id="namedview15"
     pagecolor="#ffffff"
     bordercolor="#000000"
     borderopacity="0.25"
     inkscape:showpageshadow="2"
     inkscape:pageopacity="0.0"
     inkscape:pagecheckerboard="0"
     inkscape:deskcolor="#d1d1d1"
     showgrid="false"
     inkscape:zoom="17.958333"
     inkscape:cx="18.264501"
     inkscape:cy="28.454757"
     inkscape:window-width="1920"
     inkscape:window-height="1025"
     inkscape:window-x="0"
     inkscape:window-y="0"
     inkscape:window-maximized="1"
     inkscape:current-layer="svg13" /><path
     d="M13.84,14.969c0,-5.638 4.577,-10.215 10.215,-10.215c5.637,0 10.214,4.577 10.214,10.215c0,1.013 -0.05,10.536 -0.088,11.499c-0.171,4.4 -5.556,7.072 -10.181,7.072c-3.028,0 -10.398,-0.112 -10.309,-4.82c0.077,-4.077 0.149,-11.141 0.149,-13.751"
     style="fill:none;stroke:#cec6c6;stroke-width:6.58px;"
     id="path2" /><path
     d="m 38.001051,19.238608 c 1.104039,0 2.000071,0.91271 2.000071,2.0373 V 41.64892 c 0,1.124591 -0.896032,2.037301 -2.000071,2.037301 H 10.00007 C 8.8960314,43.686221 8,42.773511 8,41.64892 V 21.275908 c 0,-1.12459 0.8960314,-2.0373 2.00007,-2.0373 z"
     style="fill:url(#_Linear1);stroke-width:1.0093"
     id="path4" /><defs
     id="defs11"><linearGradient
       id="_Linear1"
       x1="0"
       y1="0"
       x2="1"
       y2="0"
       gradientUnits="userSpaceOnUse"
       gradientTransform="matrix(0,-24.447613,-32.00112,0,24.00056,43.68622)"><stop
         offset="0"
         style="stop-color:#c36d00;stop-opacity:1;"
         id="stop6" /><stop
         offset="1"
         style="stop-color:#fecd38;stop-opacity:1"
         id="stop8" /></linearGradient></defs></svg>
