<?xml version="1.0" encoding="UTF-8" standalone="no"?>
<svg
   style="clip-rule:evenodd;fill-rule:evenodd;stroke-linejoin:round;stroke-miterlimit:2"
   viewBox="0 0 48 48"
   version="1.1"
   id="svg17"
   sodipodi:docname="Container (копия).svg"
   inkscape:version="1.2.2 (b0a8486541, 2022-12-01)"
   xmlns:inkscape="http://www.inkscape.org/namespaces/inkscape"
   xmlns:sodipodi="http://sodipodi.sourceforge.net/DTD/sodipodi-0.dtd"
   xmlns="http://www.w3.org/2000/svg"
   xmlns:svg="http://www.w3.org/2000/svg">
  <sodipodi:namedview
     id="namedview19"
     pagecolor="#ffffff"
     bordercolor="#000000"
     borderopacity="0.25"
     inkscape:showpageshadow="2"
     inkscape:pageopacity="0.0"
     inkscape:pagecheckerboard="0"
     inkscape:deskcolor="#d1d1d1"
     showgrid="false"
     inkscape:zoom="17.958333"
     inkscape:cx="24"
     inkscape:cy="28.454757"
     inkscape:window-width="1920"
     inkscape:window-height="1025"
     inkscape:window-x="0"
     inkscape:window-y="0"
     inkscape:window-maximized="1"
     inkscape:current-layer="svg17" />
  <g
     transform="matrix(0.76648039,0,0,1.0126764,-0.01272295,-7.9703256)"
     id="g4">
    <path
       d="m 61.122,15.88 c 0,-2.762 -2.239,-5 -5,-5 H 7.878 c -2.761,0 -5,2.238 -5,5 v 32.246 c 0,2.761 2.239,5 5,5 h 48.244 c 2.761,0 5,-2.239 5,-5 z"
       style="fill:#02a0ac"
       id="path2" />
  </g>
  <g
     transform="matrix(0.78731974,0,0,1.0146515,-1.2846275,-8.0250826)"
     id="g8">
    <path
       d="m 61.122,20.652 c 0,-1.326 -0.527,-2.598 -1.465,-3.536 -0.938,-0.937 -2.209,-1.464 -3.535,-1.464 h -25.58 c -1.232,0 -2.42,-0.455 -3.337,-1.277 -0.768,-0.689 -1.713,-1.535 -2.481,-2.224 -0.917,-0.822 -2.105,-1.277 -3.337,-1.277 H 7.878 c -1.326,0 -2.597,0.527 -3.535,1.465 -0.938,0.937 -1.465,2.209 -1.465,3.535 v 32.252 c 0,2.761 2.239,5 5,5 h 48.244 c 2.761,0 5,-2.239 5,-5 z"
       style="fill:url(#_Linear1)"
       id="path6" />
  </g>
  <path
     style="color:#444444;clip-rule:evenodd;fill:#2b1100;fill-rule:evenodd;stroke-width:1.9267;stroke-linejoin:round;stroke-miterlimit:2"
     class="ColorScheme-Text"
     d="m 21.304008,12.886875 c -5.844622,0 -10.654763,4.757997 -10.654763,10.539259 0,5.781264 4.810141,10.53926 10.654763,10.53926 2.156139,0 4.814017,-1.098 6.278563,-2.094439 l 6.85392,7.254843 c 0.364199,0.375581 0.869814,0.588282 1.396741,0.588282 1.063539,0 1.937231,-0.864218 1.937231,-1.916229 0,-0.51738 -0.211158,-1.013684 -0.586981,-1.373937 l -7.349849,-6.793031 c 1.009295,-1.446752 2.121266,-4.073903 2.12514,-6.204749 0,-5.781262 -4.810142,-10.539259 -10.654765,-10.539259 z m 0,2.102103 c 4.680348,0 8.529625,3.807548 8.529625,8.437156 0,4.629609 -3.849277,8.437156 -8.529625,8.437156 -4.680346,0 -8.529622,-3.807547 -8.529622,-8.437156 0,-4.629608 3.849276,-8.437156 8.529622,-8.437156 z"
     id="path242" />
  <defs
     id="defs15">
    <linearGradient
       id="_Linear1"
       x2="1"
       gradientTransform="matrix(0,-41.6338,41.6338,0,445.153,52.7218)"
       gradientUnits="userSpaceOnUse">
      <stop
         style="stop-color:rgb(0,130,140)"
         offset="0"
         id="stop10" />
      <stop
         style="stop-color:rgb(0,210,220)"
         offset="1"
         id="stop12" />
    </linearGradient>
  </defs>
</svg>
