<?xml version="1.0" encoding="UTF-8" standalone="no"?>
<svg
   width="32"
   height="32"
   version="1"
   id="svg14"
   sodipodi:docname="ms-DS-Password-Settings-Container.svg"
   inkscape:version="1.2.2 (b0a8486541, 2022-12-01)"
   xmlns:inkscape="http://www.inkscape.org/namespaces/inkscape"
   xmlns:sodipodi="http://sodipodi.sourceforge.net/DTD/sodipodi-0.dtd"
   xmlns="http://www.w3.org/2000/svg"
   xmlns:svg="http://www.w3.org/2000/svg">
  <defs
     id="defs18" />
  <sodipodi:namedview
     id="namedview16"
     pagecolor="#ffffff"
     bordercolor="#000000"
     borderopacity="0.25"
     inkscape:showpageshadow="2"
     inkscape:pageopacity="0.0"
     inkscape:pagecheckerboard="0"
     inkscape:deskcolor="#d1d1d1"
     showgrid="false"
     inkscape:zoom="26.9375"
     inkscape:cx="16.167053"
     inkscape:cy="19.062645"
     inkscape:window-width="1920"
     inkscape:window-height="1008"
     inkscape:window-x="0"
     inkscape:window-y="0"
     inkscape:window-maximized="1"
     inkscape:current-layer="svg14" />
  <rect
     style="opacity:0.2;stroke-width:1.10138"
     width="29.478395"
     height="20.740057"
     x="1.19125"
     y="11"
     rx="1.4739197"
     ry="1.6131155"
     id="rect2" />
  <path
     style="fill:#973552"
     d="M 2,22.6 C 2,23.376 2.6244,24 3.4,24 H 28.6 C 29.376,24 30,23.376 30,22.6 V 7.4 C 30,6.6244 29.376,6 28.6,6 H 16 C 13.9,6 13.2,3 11.1,3 H 3.4 C 2.6244,3 2,3.6244 2,4.4"
     id="path4" />
  <rect
     style="opacity:0.2;stroke-width:0.982487"
     width="28"
     height="17.375036"
     x="2"
     y="9.6249638"
     rx="1.4"
     ry="1.3513917"
     id="rect6" />
  <rect
     style="fill:#ff7446"
     width="24"
     height="11"
     x="4"
     y="8"
     rx="1.4"
     ry="1.4"
     id="rect8" />
  <rect
     style="fill:#676767;stroke-width:1.07484"
     width="29.456213"
     height="19.766941"
     x="1.2292486"
     y="11.630787"
     rx="1.4728106"
     ry="1.5374289"
     id="rect10" />
  <path
     style="opacity:0.1;fill:#ffffff"
     d="M 3.4004,3 C 2.6248,3 2,3.6248 2,4.4004 V 5.4004 C 2,4.6248 2.6248,4 3.4004,4 H 11.1 C 13.2,4 13.9,7 16,7 H 28.6 C 29.375,7 30,7.6248 30,8.4004 V 7.4004 C 30,6.6248 29.375,6 28.6,6 H 16 C 13.9,6 13.2,3 11.1,3 Z"
     id="path12" />
  <path
     style="fill:#e4e4e4;stroke-width:1.69225"
     d="m 10.871012,16.708961 c -2.8387466,0 -5.1395531,2.244908 -5.1395531,5.014687 0,2.769779 2.3008065,5.014686 5.1395531,5.014686 2.175745,0 4.113357,-1.342262 4.838035,-3.343124 h 5.441073 v 1.671562 h 3.42637 V 23.39521 h 1.713185 V 20.052085 H 15.709047 c -0.724678,-2.000859 -2.66229,-3.343124 -4.838035,-3.343124 z m 0,3.343124 c 0.945678,0 1.713185,0.748861 1.713185,1.671563 0,0.922703 -0.767507,1.671562 -1.713185,1.671562 -0.9456764,0 -1.7131844,-0.748859 -1.7131844,-1.671562 0,-0.922702 0.767508,-1.671563 1.7131844,-1.671563 z"
     id="path146" />
</svg>
