<?xml version="1.0" encoding="UTF-8" standalone="no"?>
<svg
   style="clip-rule:evenodd;fill-rule:evenodd;stroke-linejoin:round;stroke-miterlimit:2"
   viewBox="0 0 48 48"
   version="1.1"
   id="svg17"
   sodipodi:docname="Container (копия).svg"
   inkscape:version="1.2.2 (b0a8486541, 2022-12-01)"
   xmlns:inkscape="http://www.inkscape.org/namespaces/inkscape"
   xmlns:sodipodi="http://sodipodi.sourceforge.net/DTD/sodipodi-0.dtd"
   xmlns="http://www.w3.org/2000/svg"
   xmlns:svg="http://www.w3.org/2000/svg">
  <sodipodi:namedview
     id="namedview19"
     pagecolor="#ffffff"
     bordercolor="#000000"
     borderopacity="0.25"
     inkscape:showpageshadow="2"
     inkscape:pageopacity="0.0"
     inkscape:pagecheckerboard="0"
     inkscape:deskcolor="#d1d1d1"
     showgrid="false"
     inkscape:zoom="17.958333"
     inkscape:cx="24"
     inkscape:cy="28.454757"
     inkscape:window-width="1920"
     inkscape:window-height="1025"
     inkscape:window-x="0"
     inkscape:window-y="0"
     inkscape:window-maximized="1"
     inkscape:current-layer="svg17" />
  <g
     transform="matrix(0.76648039,0,0,1.0126764,-0.01272295,-7.9703256)"
     id="g4">
    <path
       d="m 61.122,15.88 c 0,-2.762 -2.239,-5 -5,-5 H 7.878 c -2.761,0 -5,2.238 -5,5 v 32.246 c 0,2.761 2.239,5 5,5 h 48.244 c 2.761,0 5,-2.239 5,-5 z"
       style="fill:#02a0ac"
       id="path2" />
  </g>
  <g
     transform="matrix(0.78731974,0,0,1.0146515,-1.2846275,-8.0250826)"
     id="g8">
    <path
       d="m 61.122,20.652 c 0,-1.326 -0.527,-2.598 -1.465,-3.536 -0.938,-0.937 -2.209,-1.464 -3.535,-1.464 h -25.58 c -1.232,0 -2.42,-0.455 -3.337,-1.277 -0.768,-0.689 -1.713,-1.535 -2.481,-2.224 -0.917,-0.822 -2.105,-1.277 -3.337,-1.277 H 7.878 c -1.326,0 -2.597,0.527 -3.535,1.465 -0.938,0.937 -1.465,2.209 -1.465,3.535 v 32.252 c 0,2.761 2.239,5 5,5 h 48.244 c 2.761,0 5,-2.239 5,-5 z"
       style="fill:url(#_Linear1)"
       id="path6" />
  </g>
  <defs
     id="defs15">
    <linearGradient
       id="_Linear1"
       x2="1"
       gradientTransform="matrix(0,-41.6338,41.6338,0,445.153,52.7218)"
       gradientUnits="userSpaceOnUse">
      <stop
         style="stop-color:rgb(0,130,140)"
         offset="0"
         id="stop10" />
      <stop
         style="stop-color:rgb(0,210,220)"
         offset="1"
         id="stop12" />
    </linearGradient>
  </defs>
  <g
     transform="matrix(1.320896,0,0,1.2834183,-18.772129,-16.196589)"
     id="g12"
     style="clip-rule:evenodd;fill:#2b1100;fill-rule:evenodd;stroke-linejoin:round;stroke-miterlimit:2">
    <path
       d="m 32,22.012 c -3.372,0 -6.095,2.641 -6.095,6.095 h 2.032 c 0,-2.235 1.808,-4.064 4.063,-4.064 2.255,0 4.063,1.829 4.063,4.064 V 32.17 H 24.889 c -0.562,0 -1.015,0.453 -1.015,1.016 v 10.158 c 0,0.562 0.453,1.015 1.015,1.015 h 14.222 c 0.562,0 1.015,-0.453 1.015,-1.015 V 33.186 c 0,-0.563 -0.453,-1.016 -1.015,-1.016 h -1.016 v -4.063 c 0,-3.454 -2.723,-6.095 -6.095,-6.095 z"
       style="fill:#2b1100;fill-rule:nonzero"
       id="path10" />
  </g>
</svg>
