<?xml version="1.0" encoding="UTF-8" standalone="no"?>
<svg
   style="clip-rule:evenodd;fill-rule:evenodd;stroke-linejoin:round;stroke-miterlimit:2"
   viewBox="0 0 48 48"
   version="1.1"
   id="svg17"
   sodipodi:docname="Container (копия).svg"
   inkscape:version="1.2.2 (b0a8486541, 2022-12-01)"
   xmlns:inkscape="http://www.inkscape.org/namespaces/inkscape"
   xmlns:sodipodi="http://sodipodi.sourceforge.net/DTD/sodipodi-0.dtd"
   xmlns="http://www.w3.org/2000/svg"
   xmlns:svg="http://www.w3.org/2000/svg">
  <sodipodi:namedview
     id="namedview19"
     pagecolor="#ffffff"
     bordercolor="#000000"
     borderopacity="0.25"
     inkscape:showpageshadow="2"
     inkscape:pageopacity="0.0"
     inkscape:pagecheckerboard="0"
     inkscape:deskcolor="#d1d1d1"
     showgrid="false"
     inkscape:zoom="17.958333"
     inkscape:cx="24"
     inkscape:cy="28.454757"
     inkscape:window-width="1920"
     inkscape:window-height="1025"
     inkscape:window-x="0"
     inkscape:window-y="0"
     inkscape:window-maximized="1"
     inkscape:current-layer="svg17" />
  <g
     transform="matrix(0.76648039,0,0,1.0126764,-0.01272295,-7.9703256)"
     id="g4">
    <path
       d="m 61.122,15.88 c 0,-2.762 -2.239,-5 -5,-5 H 7.878 c -2.761,0 -5,2.238 -5,5 v 32.246 c 0,2.761 2.239,5 5,5 h 48.244 c 2.761,0 5,-2.239 5,-5 z"
       style="fill:#02a0ac"
       id="path2" />
  </g>
  <g
     transform="matrix(0.78731974,0,0,1.0146515,-1.2846275,-8.0250826)"
     id="g8">
    <path
       d="m 61.122,20.652 c 0,-1.326 -0.527,-2.598 -1.465,-3.536 -0.938,-0.937 -2.209,-1.464 -3.535,-1.464 h -25.58 c -1.232,0 -2.42,-0.455 -3.337,-1.277 -0.768,-0.689 -1.713,-1.535 -2.481,-2.224 -0.917,-0.822 -2.105,-1.277 -3.337,-1.277 H 7.878 c -1.326,0 -2.597,0.527 -3.535,1.465 -0.938,0.937 -1.465,2.209 -1.465,3.535 v 32.252 c 0,2.761 2.239,5 5,5 h 48.244 c 2.761,0 5,-2.239 5,-5 z"
       style="fill:url(#_Linear1)"
       id="path6" />
  </g>
  <path
     d="m 10.986728,14.142056 c 0,-1.179568 1.058153,-2.126545 2.372014,-2.126545 l 15.021069,-0.0015 7.905029,7.09704 v 19.457581 c 0,0.572415 -0.252341,1.120665 -0.704874,1.525434 -0.450851,0.406278 -1.061519,0.632828 -1.699102,0.632828 0,0 -14.343111,0.01057 -20.323613,0.0151 -0.681323,0 -1.33573,-0.243163 -1.816862,-0.675117 -0.482814,-0.433465 -0.753661,-1.019473 -0.753661,-1.631157 0,-6.467233 0,-24.293657 0,-24.293657 z M 33.122156,37.887463 H 14.149413 V 14.851911 h 11.392393 v 7.178598 h 7.58035 z"
     fill="url(#b)"
     id="path253"
     style="fill:#000000;stroke-width:1.59399" />
  <defs
     id="defs15">
    <linearGradient
       id="_Linear1"
       x2="1"
       gradientTransform="matrix(0,-41.6338,41.6338,0,445.153,52.7218)"
       gradientUnits="userSpaceOnUse">
      <stop
         style="stop-color:rgb(0,130,140)"
         offset="0"
         id="stop10" />
      <stop
         style="stop-color:rgb(0,210,220)"
         offset="1"
         id="stop12" />
    </linearGradient>
    <linearGradient
       id="b"
       x2="1"
       gradientTransform="matrix(0,19.0219,-18.7093,0,-1297.9617,13.373132)"
       gradientUnits="userSpaceOnUse">
      <stop
         stop-color="#126c98"
         offset="0"
         id="stop244" />
      <stop
         stop-color="#0b4f94"
         offset="1"
         id="stop246" />
    </linearGradient>
  </defs>
</svg>
