<?xml version="1.0" encoding="UTF-8" standalone="no"?>
<svg
   style="fill-rule:evenodd;clip-rule:evenodd;stroke-linejoin:round;stroke-miterlimit:2"
   width="100%"
   height="100%"
   viewBox="0 0 16 16"
   xml:space="preserve"
   version="1.1"
   id="svg9"
   sodipodi:docname="Person.svg"
   inkscape:version="1.2.2 (b0a8486541, 2022-12-01)"
   xmlns:inkscape="http://www.inkscape.org/namespaces/inkscape"
   xmlns:sodipodi="http://sodipodi.sourceforge.net/DTD/sodipodi-0.dtd"
   xmlns="http://www.w3.org/2000/svg"
   xmlns:svg="http://www.w3.org/2000/svg"><sodipodi:namedview
   id="namedview9"
   pagecolor="#ffffff"
   bordercolor="#000000"
   borderopacity="0.25"
   inkscape:showpageshadow="2"
   inkscape:pageopacity="0.0"
   inkscape:pagecheckerboard="0"
   inkscape:deskcolor="#d1d1d1"
   showgrid="false"
   inkscape:zoom="53.875"
   inkscape:cx="8"
   inkscape:cy="8"
   inkscape:window-width="1920"
   inkscape:window-height="1025"
   inkscape:window-x="0"
   inkscape:window-y="0"
   inkscape:window-maximized="1"
   inkscape:current-layer="svg9" />
 <defs
   id="defs3">
  <style
   id="current-color-scheme"
   type="text/css">
   .ColorScheme-Text { color:#dfdfdf; } .ColorScheme-Highlight { color:#4285f4; } .ColorScheme-NeutralText { color:#ff9800; } .ColorScheme-PositiveText { color:#4caf50; } .ColorScheme-NegativeText { color:#f44336; }
  </style>
 </defs>
 <path
   style="fill:currentColor;fill-opacity:0.5;stroke-width:1.05896"
   class="ColorScheme-Text"
   d="m 10.625617,10.326821 c -0.29696,0.744675 -1.310722,1.314133 -2.5088042,1.314133 -1.1980821,0 -2.2016039,-0.558506 -2.4985645,-1.303182 -2.5292845,0.273778 -3.8543429,1.008597 -4.1205834,1.886876 L 1,14.236367 c 0,0.219023 0.1638403,0.383289 0.3584006,0.383289 4.5394002,0.7841 9.0798244,0.78629 13.6192244,0 0.194561,0 0.358401,-0.164266 0.358401,-0.383289 l -0.497665,-2.004053 c -0.273409,-0.900181 -1.642499,-1.642666 -4.212744,-1.905493 z"
   id="path5" />
 <path
   style="fill:currentColor;"
   class="ColorScheme-Text"
   d="M8.01,1.465c-1.634,-0 -2.965,1.384 -3.018,3.116c-0.036,0.009 -0.081,0.027 -0.116,0.054c-0.375,0.205 -0.336,0.712 -0.077,1.302c0.205,0.482 0.434,0.903 0.773,0.894c0.25,1.581 1.718,2.76 2.429,2.76c0.711,-0 2.273,-1.544 2.464,-2.76c0.331,0.009 0.538,-0.423 0.743,-0.905c0.259,-0.59 0.32,-1.086 -0.055,-1.291c-0.036,-0.027 -0.071,-0.045 -0.116,-0.054c-0.045,-1.732 -1.384,-3.116 -3.018,-3.116l-0.009,-0Z"
   id="path7" />
<path
   style="fill:#ff7f2a;stroke-width:0.0217311"
   d="M 7.9266256,10.043548 C 7.1618287,9.832002 6.2324449,8.9972657 5.7424567,8.0818143 5.563706,7.7478521 5.4080376,7.3194103 5.3547687,7.0147916 5.3426912,6.9457272 5.332264,6.9356179 5.259613,6.9225378 4.9609466,6.8687664 4.7281666,6.5935962 4.439368,5.9529227 4.0721435,5.1382682 4.1018582,4.6235952 4.5284933,4.4092279 L 4.6485075,4.3489251 4.6620647,4.1508603 C 4.7155163,3.3699362 5.0829084,2.5329615 5.6347544,1.9349269 6.6835377,0.79836206 8.3405007,0.46630407 9.7456156,1.1111039 10.108063,1.277429 10.405162,1.4837036 10.722743,1.7895207 c 0.669167,0.644379 1.046952,1.4424565 1.130081,2.3873129 l 0.01507,0.1713179 0.0956,0.048669 c 0.235818,0.1200581 0.326654,0.2691135 0.339795,0.5575788 0.0149,0.3270326 -0.08666,0.6532271 -0.393867,1.2651245 -0.233775,0.4656269 -0.417424,0.6657396 -0.644803,0.7026063 -0.08368,0.013567 -0.08643,0.016888 -0.111837,0.1346443 C 10.981811,7.8492288 10.13623,8.9998851 9.26377,9.6273208 8.6830702,10.044935 8.3295193,10.154989 7.9266296,10.043548 Z"
   id="path255" /><path
   style="fill:#28170b;stroke-width:0.0207024"
   d="M 6.80983,15.256217 C 5.0496341,15.187607 3.23045,14.995718 1.4609173,14.691999 1.0740817,14.625609 1.0243451,14.605649 0.93600806,14.481385 c -0.0991338,-0.13945 -0.1014668,-0.122813 0.18591644,-1.32593 0.1955785,-0.81878 0.2830342,-1.149367 0.3338233,-1.26187 0.3672549,-0.813502 1.5992307,-1.427026 3.4777799,-1.731933 0.2201303,-0.03572 0.4710882,-0.07078 0.557684,-0.0779 l 0.157447,-0.01294 0.058245,0.121752 c 0.1540355,0.32199 0.4844077,0.643546 0.8864372,0.862782 0.4182264,0.22807 0.86246,0.354824 1.3597806,0.387988 1.0596187,0.07066 2.0398344,-0.279862 2.5877805,-0.925395 0.122886,-0.144772 0.273985,-0.387499 0.273985,-0.440132 0,-0.03114 0.01726,-0.03066 0.324734,0.0092 1.5087,0.195229 2.632895,0.556876 3.335907,1.073139 0.313237,0.230028 0.597113,0.57992 0.689068,0.849312 0.01915,0.05608 0.150814,0.587484 0.292603,1.180894 0.22078,0.92401 0.255098,1.089336 0.239011,1.151406 -0.02573,0.09929 -0.06609,0.162742 -0.146822,0.230879 -0.06201,0.05234 -0.121905,0.0667 -0.637591,0.152944 -1.759591,0.294264 -3.428416,0.464427 -5.2187191,0.532128 -0.6554417,0.02479 -2.2307929,0.024 -2.8832474,-0.0014 z"
   id="path533" /></svg>
