<?xml version="1.0" encoding="UTF-8" standalone="no"?>
<svg
   style="clip-rule:evenodd;fill-rule:evenodd;stroke-linejoin:round;stroke-miterlimit:2"
   viewBox="0 0 48 48"
   version="1.1"
   id="svg17"
   sodipodi:docname="Container (другая копия).svg"
   inkscape:version="1.2.2 (b0a8486541, 2022-12-01)"
   xmlns:inkscape="http://www.inkscape.org/namespaces/inkscape"
   xmlns:sodipodi="http://sodipodi.sourceforge.net/DTD/sodipodi-0.dtd"
   xmlns="http://www.w3.org/2000/svg"
   xmlns:svg="http://www.w3.org/2000/svg">
  <sodipodi:namedview
     id="namedview19"
     pagecolor="#ffffff"
     bordercolor="#000000"
     borderopacity="0.25"
     inkscape:showpageshadow="2"
     inkscape:pageopacity="0.0"
     inkscape:pagecheckerboard="0"
     inkscape:deskcolor="#d1d1d1"
     showgrid="false"
     inkscape:zoom="17.958333"
     inkscape:cx="24"
     inkscape:cy="28.454757"
     inkscape:window-width="1920"
     inkscape:window-height="1025"
     inkscape:window-x="0"
     inkscape:window-y="0"
     inkscape:window-maximized="1"
     inkscape:current-layer="svg17" />
  <g
     transform="matrix(0.76648039,0,0,1.0126764,-0.01272295,-7.9703256)"
     id="g4">
    <path
       d="m 61.122,15.88 c 0,-2.762 -2.239,-5 -5,-5 H 7.878 c -2.761,0 -5,2.238 -5,5 v 32.246 c 0,2.761 2.239,5 5,5 h 48.244 c 2.761,0 5,-2.239 5,-5 z"
       style="fill:#02a0ac"
       id="path2" />
  </g>
  <g
     transform="matrix(0.78731974,0,0,1.0146515,-1.2846275,-8.0250826)"
     id="g8">
    <path
       d="m 61.122,20.652 c 0,-1.326 -0.527,-2.598 -1.465,-3.536 -0.938,-0.937 -2.209,-1.464 -3.535,-1.464 h -25.58 c -1.232,0 -2.42,-0.455 -3.337,-1.277 -0.768,-0.689 -1.713,-1.535 -2.481,-2.224 -0.917,-0.822 -2.105,-1.277 -3.337,-1.277 H 7.878 c -1.326,0 -2.597,0.527 -3.535,1.465 -0.938,0.937 -1.465,2.209 -1.465,3.535 v 32.252 c 0,2.761 2.239,5 5,5 h 48.244 c 2.761,0 5,-2.239 5,-5 z"
       style="fill:url(#_Linear1)"
       id="path6" />
  </g>
  <g
     transform="matrix(1.2935611,0,0,1.155102,-18.204739,-11.49446)"
     id="g12"
     style="clip-rule:evenodd;fill:#2b1100;fill-rule:evenodd;stroke-linejoin:round;stroke-miterlimit:2">
    <path
       d="m 29.951,19.447 c 0,0 1.272,0.779 0.375,2.825 -1.359,3.085 1.253,3.791 1.253,3.791 0,0 -0.83,-0.724 0.276,-3.27 1.222,-2.82 -1.904,-3.346 -1.904,-3.346 z m 4.201,3.489 c 0,0 -2.312,1.027 -0.823,3.833 0.985,1.86 -0.108,2.782 -0.108,2.782 0,0 2.794,-0.92 1.447,-3.488 -1.211,-2.321 -0.516,-3.127 -0.516,-3.127 z m -6.56,1.029 c 0,0 -1.656,1.764 -0.016,3.928 1.084,1.441 0.375,2.688 0.375,2.688 0,0 2.052,-1.82 0.568,-3.812 -1.34,-1.797 -0.927,-2.804 -0.927,-2.804 z m 13.347,7.357 H 22.038 c 0,0 2.032,8.128 2.91,11.642 0.234,0.934 1.072,1.589 2.035,1.589 h 8.996 c 0.895,0 1.691,-0.568 1.982,-1.414 0.142,-0.413 0.261,-0.757 0.261,-0.757 0.368,0.091 0.747,0.155 1.142,0.155 2.608,-10e-4 4.725,-1.677 4.725,-4.286 0,-2.214 -1.529,-4.058 -3.585,-4.57 z m -0.812,3.88 c 0.017,0.002 0.034,0.005 0.051,0.009 0.841,0.226 2.696,1.328 2.109,3.543 -0.648,2.444 -2.789,2.371 -3.622,2.209 z"
       style="fill:#2b1100;fill-rule:nonzero"
       id="path10" />
  </g>
  <defs
     id="defs15">
    <linearGradient
       id="_Linear1"
       x2="1"
       gradientTransform="matrix(0,-41.6338,41.6338,0,445.153,52.7218)"
       gradientUnits="userSpaceOnUse">
      <stop
         style="stop-color:rgb(0,130,140)"
         offset="0"
         id="stop10" />
      <stop
         style="stop-color:rgb(0,210,220)"
         offset="1"
         id="stop12" />
    </linearGradient>
  </defs>
</svg>
