<?xml version="1.0" encoding="UTF-8" standalone="no"?>
<svg
   style="clip-rule:evenodd;fill-rule:evenodd;stroke-linejoin:round;stroke-miterlimit:2"
   viewBox="0 0 16 16"
   version="1.1"
   id="svg5"
   sodipodi:docname="view-refresh-symbolic.svg"
   inkscape:version="1.2.2 (b0a8486541, 2022-12-01)"
   xmlns:inkscape="http://www.inkscape.org/namespaces/inkscape"
   xmlns:sodipodi="http://sodipodi.sourceforge.net/DTD/sodipodi-0.dtd"
   xmlns="http://www.w3.org/2000/svg"
   xmlns:svg="http://www.w3.org/2000/svg"
   xmlns:serif="http://www.serif.com/">
  <defs
     id="defs9" />
  <sodipodi:namedview
     id="namedview7"
     pagecolor="#ffffff"
     bordercolor="#000000"
     borderopacity="0.25"
     inkscape:showpageshadow="2"
     inkscape:pageopacity="0.0"
     inkscape:pagecheckerboard="0"
     inkscape:deskcolor="#d1d1d1"
     showgrid="false"
     inkscape:zoom="53.875"
     inkscape:cx="8"
     inkscape:cy="8"
     inkscape:window-width="1920"
     inkscape:window-height="1025"
     inkscape:window-x="0"
     inkscape:window-y="0"
     inkscape:window-maximized="1"
     inkscape:current-layer="svg5" />
  <g
     id="Redo-Icon"
     transform="matrix(.572579 0 0 .572579 -478.12 -1994.88)"
     serif:id="Redo Icon"
     style="fill:#550000">
    <path
       d="m861 3495h-9.04l3.382-3.37c-1.625-1.62-3.862-2.63-6.342-2.63-4.971 0-9 4.03-9 9s4.029 9 9 9c3.591 0 6.682-2.11 8.126-5.15 0 0 0.252-0.85 1.374-0.85 0.828 0 1.5 0.67 1.5 1.5 0 0.29-0.101 0.54-0.24 0.76-1.952 3.99-6.026 6.74-10.76 6.74-6.627 0-12-5.37-12-12s5.373-12 12-12c3.311 0 6.297 1.35 8.464 3.52l3.536-3.52v9z"
       fill="#dfdfdf"
       id="path2"
       style="fill:#550000" />
  </g>
</svg>
