<?xml version="1.0" encoding="UTF-8" standalone="no"?>
<svg
   style="clip-rule:evenodd;fill-rule:evenodd;stroke-linejoin:round;stroke-miterlimit:2"
   viewBox="0 0 48 48"
   version="1.1"
   id="svg17"
   sodipodi:docname="Volume.svg"
   inkscape:version="1.2.2 (b0a8486541, 2022-12-01)"
   xmlns:inkscape="http://www.inkscape.org/namespaces/inkscape"
   xmlns:sodipodi="http://sodipodi.sourceforge.net/DTD/sodipodi-0.dtd"
   xmlns="http://www.w3.org/2000/svg"
   xmlns:svg="http://www.w3.org/2000/svg">
  <sodipodi:namedview
     id="namedview19"
     pagecolor="#ffffff"
     bordercolor="#000000"
     borderopacity="0.25"
     inkscape:showpageshadow="2"
     inkscape:pageopacity="0.0"
     inkscape:pagecheckerboard="0"
     inkscape:deskcolor="#d1d1d1"
     showgrid="false"
     inkscape:zoom="17.958333"
     inkscape:cx="24"
     inkscape:cy="28.454757"
     inkscape:window-width="1920"
     inkscape:window-height="1025"
     inkscape:window-x="0"
     inkscape:window-y="0"
     inkscape:window-maximized="1"
     inkscape:current-layer="svg17" />
  <g
     transform="matrix(0.76648039,0,0,1.0126764,-0.01272295,-7.9703256)"
     id="g4">
    <path
       d="m 61.122,15.88 c 0,-2.762 -2.239,-5 -5,-5 H 7.878 c -2.761,0 -5,2.238 -5,5 v 32.246 c 0,2.761 2.239,5 5,5 h 48.244 c 2.761,0 5,-2.239 5,-5 z"
       style="fill:#02a0ac"
       id="path2" />
  </g>
  <g
     transform="matrix(0.78731974,0,0,1.0146515,-1.2846275,-8.0250826)"
     id="g8">
    <path
       d="m 61.122,20.652 c 0,-1.326 -0.527,-2.598 -1.465,-3.536 -0.938,-0.937 -2.209,-1.464 -3.535,-1.464 h -25.58 c -1.232,0 -2.42,-0.455 -3.337,-1.277 -0.768,-0.689 -1.713,-1.535 -2.481,-2.224 -0.917,-0.822 -2.105,-1.277 -3.337,-1.277 H 7.878 c -1.326,0 -2.597,0.527 -3.535,1.465 -0.938,0.937 -1.465,2.209 -1.465,3.535 v 32.252 c 0,2.761 2.239,5 5,5 h 48.244 c 2.761,0 5,-2.239 5,-5 z"
       style="fill:url(#_Linear1)"
       id="path6" />
  </g>
  <path
     d="m 10.306993,25.694534 c -0.0045,-0.14676 -0.006,-0.292006 -0.006,-0.438766 0,-7.301634 5.817634,-13.220407 12.99301,-13.220407 4.187745,0 7.911507,2.015288 10.28942,5.145641 0.337576,-0.121039 0.700434,-0.187611 1.079651,-0.187611 1.793474,0 3.247882,1.481207 3.247882,3.304347 0,1.28452 -0.719769,2.398071 -1.772654,2.945769 0.09815,0.655121 0.148713,1.328396 0.148713,2.012261 0,2.024367 -0.447624,3.944338 -1.247699,5.658543 0.759921,0.60519 1.247699,1.546264 1.247699,2.602323 0,1.824652 -1.454407,3.305858 -3.24788,3.305858 -0.826842,0 -1.58379,-0.316213 -2.157819,-0.835165 -2.134024,1.565934 -4.754338,2.487338 -7.587313,2.487338 -4.810848,0 -9.010489,-2.659817 -11.256047,-6.611717 -0.03717,0.0015 -0.07584,0.0015 -0.113022,0.0015 -1.793472,0 -3.2478806,-1.479692 -3.2478806,-3.304344 0,-1.225515 0.6558212,-2.29519 1.6298886,-2.865583 z m 13.39751,1.169532 c 0.556185,1.012183 1.619479,1.69605 2.837435,1.69605 0.431266,0 0.8432,-0.08625 1.220929,-0.242079 l 2.606929,3.31645 c -0.364344,0.534082 -0.578491,1.18315 -0.578491,1.882147 0,0.385809 0.06395,0.754975 0.182917,1.098422 -1.875264,1.388913 -4.183283,2.207436 -6.680166,2.207436 -4.074721,0 -7.648282,-2.180203 -9.654414,-5.4558 0.859558,-0.544674 1.449948,-1.485747 1.525789,-2.572065 z m 8.768088,-4.127406 c 0.551724,0.512899 1.275953,0.835164 2.074541,0.863911 0.07732,0.540133 0.115995,1.09237 0.115995,1.655197 0,1.789855 -0.400036,3.484392 -1.11237,4.997371 -0.166557,-0.02724 -0.337577,-0.04085 -0.511572,-0.04085 -0.431266,0 -0.843199,0.08625 -1.219442,0.242077 L 29.211327,27.13792 c 0.365832,-0.534082 0.579978,-1.183149 0.579978,-1.882145 0,-0.282927 -0.0357,-0.558289 -0.101131,-0.820034 z m -0.239426,-4.629715 c -0.508597,0.582496 -0.81792,1.35109 -0.81792,2.190793 0,0.282927 0.03419,0.55829 0.101121,0.820035 l -2.782411,1.699075 c -0.578491,-0.538621 -1.347336,-0.866936 -2.192022,-0.866936 -1.714655,0 -3.121476,1.355628 -3.240446,3.069833 l -8.53907,1.932073 c -0.548756,-1.000078 -1.594203,-1.680919 -2.795801,-1.69605 h -0.04163 c 0,-6.389308 5.090428,-11.566721 11.36907,-11.566721 3.627098,0 6.857132,1.726309 8.939109,4.417898 z"
     fill="#18567d"
     id="path11"
     style="clip-rule:evenodd;fill:#2b1100;fill-rule:evenodd;stroke-width:1.5;stroke-linejoin:round;stroke-miterlimit:2" />
  <defs
     id="defs15">
    <linearGradient
       id="_Linear1"
       x2="1"
       gradientTransform="matrix(0,-41.6338,41.6338,0,445.153,52.7218)"
       gradientUnits="userSpaceOnUse">
      <stop
         style="stop-color:rgb(0,130,140)"
         offset="0"
         id="stop10" />
      <stop
         style="stop-color:rgb(0,210,220)"
         offset="1"
         id="stop12" />
    </linearGradient>
  </defs>
</svg>
