<?xml version="1.0" encoding="UTF-8" standalone="no"?>
<svg
   width="32"
   height="32"
   version="1"
   id="svg14"
   sodipodi:docname="1.svg"
   inkscape:version="1.2.2 (b0a8486541, 2022-12-01)"
   xmlns:inkscape="http://www.inkscape.org/namespaces/inkscape"
   xmlns:sodipodi="http://sodipodi.sourceforge.net/DTD/sodipodi-0.dtd"
   xmlns="http://www.w3.org/2000/svg"
   xmlns:svg="http://www.w3.org/2000/svg">
  <defs
     id="defs18" />
  <sodipodi:namedview
     id="namedview16"
     pagecolor="#ffffff"
     bordercolor="#000000"
     borderopacity="0.25"
     inkscape:showpageshadow="2"
     inkscape:pageopacity="0.0"
     inkscape:pagecheckerboard="0"
     inkscape:deskcolor="#d1d1d1"
     showgrid="false"
     inkscape:zoom="26.9375"
     inkscape:cx="16.111369"
     inkscape:cy="19.062645"
     inkscape:window-width="1920"
     inkscape:window-height="1008"
     inkscape:window-x="0"
     inkscape:window-y="0"
     inkscape:window-maximized="1"
     inkscape:current-layer="svg14" />
  <rect
     style="opacity:0.2;stroke-width:1.10138"
     width="29.478395"
     height="20.740057"
     x="1.19125"
     y="11"
     rx="1.4739197"
     ry="1.6131155"
     id="rect2" />
  <path
     style="fill:#973552"
     d="M 2,22.6 C 2,23.376 2.6244,24 3.4,24 H 28.6 C 29.376,24 30,23.376 30,22.6 V 7.4 C 30,6.6244 29.376,6 28.6,6 H 16 C 13.9,6 13.2,3 11.1,3 H 3.4 C 2.6244,3 2,3.6244 2,4.4"
     id="path4" />
  <rect
     style="opacity:0.2;stroke-width:0.982487"
     width="28"
     height="17.375036"
     x="2"
     y="9.6249638"
     rx="1.4"
     ry="1.3513917"
     id="rect6" />
  <rect
     style="fill:#ff7446"
     width="24"
     height="11"
     x="4"
     y="8"
     rx="1.4"
     ry="1.4"
     id="rect8" />
  <rect
     style="fill:#676767;stroke-width:1.07484"
     width="29.456213"
     height="19.766941"
     x="1.2292486"
     y="11.630787"
     rx="1.4728106"
     ry="1.5374289"
     id="rect10" />
  <path
     style="opacity:0.1;fill:#ffffff"
     d="M 3.4004,3 C 2.6248,3 2,3.6248 2,4.4004 V 5.4004 C 2,4.6248 2.6248,4 3.4004,4 H 11.1 C 13.2,4 13.9,7 16,7 H 28.6 C 29.375,7 30,7.6248 30,8.4004 V 7.4004 C 30,6.6248 29.375,6 28.6,6 H 16 C 13.9,6 13.2,3 11.1,3 Z"
     id="path12" />
  <path
     style="fill:#e4e4e4;stroke-width:1.23604"
     d="m 14.933262,15.394099 a 5.0018883,5.5536372 0 0 0 -4.734287,3.774103 4.0015106,4.4429098 0 0 0 -2.2683555,4.001356 4.0015106,4.4429098 0 0 0 4.0015095,4.442421 4.0015106,4.4429098 0 0 0 2.659753,-1.130153 5.0018883,5.5536372 0 0 0 0.341379,0.01955 5.0018883,5.5536372 0 0 0 2.114549,-0.527812 4.0015106,4.4429098 0 0 0 1.888212,0.527812 4.0015106,4.4429098 0 0 0 4.00026,-4.442421 4.0015106,4.4429098 0 0 0 -4.00151,-4.442421 4.0015106,4.4429098 0 0 0 -0.0075,0 5.0018883,5.5536372 0 0 0 -3.995257,-2.222432 z"
     id="path736" />
</svg>
